<svg version="1.2" xmlns="http://www.w3.org/2000/svg" viewBox="0 0 1300 558" width="1300" height="558">
	<title>Logo-UNIBS-P287U-01-ai</title>
	<style>
		.s0 { fill: #325f9c } 
	</style>
	<g id="Livello 1">
		<g id="&lt;Group&gt;">
			<path id="&lt;Compound Path&gt;" fill-rule="evenodd" class="s0" d="m395.3 192.9l-17.4 3.6 16.8-18.6 0.3-0.4 16.7 19.3zm13.6 2.3l-13.3-15.5 0.2 12.3z"/>
			<path id="&lt;Path&gt;" class="s0" d="m403.4 204.2l2.1 0.5v6.8l-2.1-0.5z"/>
			<path id="&lt;Path&gt;" class="s0" d="m398.4 203.5l2.1 0.4v6.8l-2.1-0.4z"/>
			<path id="&lt;Compound Path&gt;" class="s0" d="m379.7 195.5h1v18.9h-1zm57.2 79.9v-0.5c0-2.5-1.2-5.1-2.3-7.4-1.2-2.5-3.1-4.8-4.7-6.5-1.5-1.6-3.9-3.3-7.2-4.8-3.3-1.4-6.1-2-8.8-2.4q-1-0.1-2.1-0.1c-1.5 0-2.9 0.1-3.8 0.1q-0.5 0.1-0.8 0c-1-0.3-1.7-1.1-5.4-1.8-2-0.3-3.5-0.3-4.6-0.4-1.1-0.1-1.7 0.1-2.3-0.5-2.6-3-5.2-5.1-7.1-6.3-1.9-1.3-3.2-1.8-3.2-1.8l0.3-0.9c0.1 0 4.9 1.9 10 7.5v-57.2h0.9v58.1h0.2q0.4 0.1 1.3 0.1c1.1 0.1 2.6 0.1 4.6 0.5 3.8 0.6 4.9 1.6 5.5 1.7q0.2 0.1 0.6 0h0.3v-57.2h0.9v57.2c0.8 0 1.7-0.1 2.6-0.1 0.8 0 1.5 0 2.3 0.1 2.7 0.4 5.6 1 9 2.5 3.4 1.5 5.9 3.3 7.5 5 1.6 1.8 3.7 4.1 4.9 6.7 1.1 2.4 2.4 5.1 2.4 7.9l-0.1 0.6z"/>
			<path id="&lt;Path&gt;" class="s0" d="m379.2 255.6c0 0 1.5 0.3 2.4 0.2 0.9-0.1 1.3-0.1 1.6 0 0.3 0.1 1.4 0.3 1.8 0.4 0.4 0.2 1.5 0.5 1.8 0.6 0.4 0.2 0.9 0.7 1.5 0.8 0.6 0.1 1.7 0.4 1.7 0.4 0 0 0.7 0.4 1 0.4 0.3 0 0.8 0.1 0.8 0.1l0.8 0.4c0.2 0.2 0.3 0.5 0.7 0.6 0.4 0 0.7 0.4 0.7 0.4 0 0 0.4 0.2 1.6 0.8 1.3 0.6 1.9 0.9 3.3 0.7 1.5-0.3 3.2-0.9 4.2-1.3 1-0.3 1.3-0.5 1.7-0.5 0.4 0 1.6-0.4 2.1-0.3 0.5 0.2 1.5 0.3 1.8 0.3 0.3 0 0.7-0.2 1.4 0 0.7 0.3 1.6 0.6 1.9 0.9 0.2 0.3 0.1 0.5-0.5 0.2-0.6-0.2-1.7-0.6-2.6-0.5-0.9 0.1-2.2 0.2-2.5 0.2-0.3 0-0.8 0-1.4 0.3-0.6 0.3-0.7 0.6-1.1 0.7-0.4 0.1-0.9 0.3-1.3 0.4-0.3 0.1-1 0.7-1.5 0.9-0.5 0.1-1.2 0.6-2.1 0.5-0.8 0-1.9-0.2-2.3-0.3-0.4-0.1-1.1-0.1-1.3-0.3-0.2-0.2-0.3-0.4-0.7-0.5-0.5-0.1-1.1-0.4-1.7-1.1-0.7-0.8-0.9-0.6-1.2-0.7-0.2-0.2-0.9-0.8-1.4-1.1-0.5-0.3-1.1-0.4-1.5-0.7-0.3-0.3-0.9-0.3-1.5-0.6-0.6-0.4-0.9-0.2-1.7-0.6-0.8-0.4-1.5-0.4-1.8-0.5-0.3-0.1-0.4-0.3-1.3-0.4-0.9-0.2-0.9-0.3-1.5-0.3-0.6 0-1.4 0-1.7 0z"/>
			<path id="&lt;Path&gt;" class="s0" d="m383.5 270.9c0 0 0.9-0.3 1.6 0 0.7 0.3 0.9 0 1.5 0.3 0.6 0.3 1.1 0.4 1.4 0.5 0.2 0.1 0.8 0.4 1.2 0.5 0.4 0.2 1.3 0.5 1.6 0.5 0.2 0 0.8 0.1 1.2 0.2 0.4 0.1 0.9 0.1 1.3 0.6 0.3 0.3 0.3 0.4 0.7 0.5 0.3 0.1 0.9 0.5 1.6 1.1 0.8 0.6 1.5 1.2 2 1.4 0.5 0.2 1.6 0.7 2 0.8 0.3 0.2 0.9 0.4 1.2 0.4 0.3 0 0.6 0.2 1.2 0.2 0.5 0.1 1.1 0 1.1 0 0 0-0.1 0.4-0.5 0.3-0.3-0.1-0.5-0.1-0.9 0-0.5 0.1-0.6 0.2-1.1 0.2-0.5 0-0.2 0.1-1 0.1-0.7-0.1-1.1-0.1-1.6-0.2-0.6-0.2-0.8 0.1-1.3-0.3-0.5-0.3-1.3-0.8-1.6-1.3-0.2-0.5-0.8-0.6-1.1-1.1-0.4-0.4-0.6-0.5-1-1-0.4-0.5-1.1-0.9-1.4-0.9-0.3 0-1 0-1.4-0.3-0.4-0.3-0.9-0.4-1.2-0.6-0.3-0.2 0-0.4-0.8-0.4-0.8-0.1-1-0.4-1.2-0.5-0.2-0.1-0.5-0.3-1.1-0.3-0.7 0-0.9-0.2-1.5-0.3-0.5 0-1-0.1-1-0.1z"/>
			<path id="&lt;Path&gt;" class="s0" d="m364.2 262.8c0 0 0.7-0.1 1.5-0.1 0.8 0 2.1 0.1 2.9 0 0.9 0 3.6-0.3 4.2-0.3 0.6 0.1 1.5 0.2 1.9 0.1 0.4-0.1 1.1-0.1 1.6 0.1 0.5 0.1 1.4 0 2 0 0.6 0 0.9 0.2 2 0.7 1.1 0.3 2.1 1.1 2.4 1.2 0.4 0.1 1.3 0.4 1.7 0.5 0.3 0 1.2 0.5 1.2 0.5 0 0-1 0.3-1.7 0-0.6-0.3-1.4-0.6-2.4-1.1-0.9-0.4-1.3-0.1-1.7-0.5-0.3-0.4-1.4-0.7-2.1-0.6-0.8 0-2.8-0.1-2.8-0.1 0 0-0.7 0.2-1 0.1-0.4 0-0.9 0.1-2 0.3-1.1 0.3-1.2 0.4-1.9 0.5-0.7 0.1-1.9 0.2-3.1 0.3-1.1 0-1.4 0.2-2.2 0.4-0.7 0.2-0.7 0.4-1.1 0.4-0.4 0-0.5-0.2-0.8-0.1-0.2 0.1-0.9 0.3-0.9 0.3h-0.4z"/>
			<path id="&lt;Path&gt;" class="s0" d="m380.8 246.4c0 0 0.6 0.3 1.1 0.5 0.4 0.1 1 0.4 1.2 0.5l1.2 0.6c0.2 0 0.5-0.1 0.9 0.3 0.4 0.4 0.6 0.8 0.8 0.8l1 0.9 1.3 1 0.4 0.4c0 0-0.3 0.1-0.8-0.3-0.5-0.4-1.2-0.7-1.7-1.2-0.6-0.5-1.3-0.9-1.8-1.1-0.5-0.2-1-0.1-1.6-0.3-0.5-0.2-0.9-0.4-1.6-0.4-0.6 0-0.6 0-1.1 0.1-0.4 0-1.1 0-1.1 0z"/>
			<path id="&lt;Path&gt;" class="s0" d="m456.4 298.9c0 0 0.1-0.4 0.1-1.3l-0.1-0.4c0-1-0.9-3.2-1.3-3.7-0.6-0.7-1.8-3.2-2-3.5 0-0.1-1.6-1.1-2.7-2.1-1.2-1.2-2.2-3.2-2.8-4.3-0.5-0.9-2.5-2-2.8-2-0.5-0.2-2.6-1.4-3.1-1.9-0.5-0.3-2.3-2.2-2.6-2.4-0.3-0.2-1.2-0.7-1.9-1.1-0.6-0.5-0.7-0.4-2.7-1.6-1.8-1.1-3.2-1.3-3.2-1.3l0.1-1c0.1 0 1.6 0.2 3.7 1.5 1.9 1.2 1.9 1 2.7 1.5 0.6 0.5 1.6 1 1.8 1.1 0.3 0.2 0.7 0.6 1.3 1.2 0.6 0.6 1.2 1.2 1.4 1.4 0.3 0.3 2.7 1.7 2.8 1.7 0.5 0.1 2.5 1 3.3 2.4 0.7 1.1 1.7 3.2 2.7 4.1 1 0.9 2.4 1.6 2.9 2.3 0.2 0.4 1.5 2.9 1.9 3.4 0.5 0.8 1.5 2.9 1.5 4.2l0.1 0.5c0 0.9-0.2 1.5-0.2 1.5z"/>
			<path id="&lt;Path&gt;" class="s0" d="m425.9 263.6c0 0 0.3 0.1 0.5 0.6 0.2 0.4 0.2 0.6 0.2 1 0 0.5-0.1 0.9 0.1 1l0.6 0.6c0 0.2-0.1 1.2 0.1 1.8 0.1 0.6 0.1 1.5 0.2 1.7 0.1 0.2 0.4 0.8 0.7 1.4 0.2 0.5 0.3 1.2 0.3 1.2l-0.5 0.6c0 0.2-0.3 1.3-0.4 1.7-0.2 0.3-0.3 0.5-0.2 1 0.1 0.4 0.5 2.2 0.5 2.2v0.4l-1.6 0.1c0 0 0-0.9 0-1.4 0-0.5 0.1-1.4 0-1.6-0.2-0.2-0.4-0.2-0.4-0.7 0-0.5 0.3-1.7 0.4-2v-1.1c-0.1-0.3-0.2-0.8-0.3-1.1 0-0.3 0-0.5-0.3-0.6-0.2-0.1-0.9-0.1-1.2-0.1-0.4-0.1-0.7-0.2-0.7-0.2l-0.4-0.2-0.3 0.1 0.3-1.2c0.2-0.1 0.1-0.1 0.3 0.1 0.3 0.3 0.5 0.7 0.9 0.7 0.3 0 0.8-0.3 0.9-0.5 0.1-0.2 0-0.6 0-0.9-0.1-0.3 0.1-0.7 0.1-1 0.1-0.4-0.1-1-0.5-1.3-0.3-0.2-0.6-0.5-0.7-0.9 0-0.4 0.2-0.7 0.4-0.9l0.6-0.6z"/>
			<path id="&lt;Path&gt;" class="s0" d="m410 280.2c0 0 0.3-0.2 1.1-0.2 0.7-0.1 0.7-0.3 1.5-0.3 0.7 0 1.1 0.2 1.5 0 0.4-0.1 1.9-0.3 2.2-0.3 0.3 0 1.4-0.1 1.6-0.1l1.5-0.2c0.1 0 1.3-0.2 1.6-0.2 0.4 0.1 0.9 0.1 1 0.1 0.2 0 1.3-0.2 1.6-0.2 0.4 0 1.8 0 2.4-0.1 0.5-0.2 2-0.5 2.6-0.5 0.6 0 1.6 0 1.9 0l1.3-0.1c0.2 0 0.4-0.2 0.7 0 0.4 0.3 0.4 0.4 0.4 0.4 0 0 0.3 0 0.4 0.5 0.1 0.5 0 1.2 0.4 2.1 0.3 0.9 0.5 1.5 0.8 2 0.3 0.4 0.1 0.6 0.2 0.7 0.2 0 0.4 0.6 0.7 1 0.2 0.3 0.3 0.8 0.7 1.3 0.5 0.4 0.8 0.8 1 1 0.3 0.2 0.8 0.9 1 1.2 0.2 0.3 0.7 0.8 1.1 1.1 0.3 0.4 1 1.1 1.3 1.5 0.3 0.4 0.8 1.1 1.3 1.9 0.5 0.8 1.2 2.2 1.2 2.9 0 0.6 0.1 1.5 0.1 1.7 0 0.3 0.1 0.7-0.1 1-0.1 0.2-0.1 0.4-0.1 0.8 0 0.4 0.1 0.8 0.3 0.8l0.1 0.3-1.5 0.2-0.2-0.1c0 0-0.1-0.1 0.1-0.4 0.2-0.3 0.5-1 0.5-1.6 0.1-0.5 0.3-1.8-0.2-3-0.4-1.3-1-2.4-1.3-2.9-0.4-0.5-1.4-1.7-1.4-1.7l-0.5-0.3c0-0.2-0.2-0.8-0.6-1-0.4-0.2-0.3-0.1-0.6-0.4-0.2-0.2-0.9-1.2-1.2-1.6-0.4-0.4-0.9-0.8-1.3-1.5-0.5-0.7-0.8-1.2-1.1-1.9-0.3-0.7-0.6-1.1-0.7-1.5-0.1-0.4-0.3-0.7-0.4-1.1 0-0.4 0-1-0.1-1.1l-0.5-0.1c-0.1 0.2-0.1 0.9 0 1.7 0.1 0.8 0.5 2.8 1 3.9 0.5 1 1 2.1 1.2 2.5 0.2 0.4 0.8 1.3 0.9 1.5l0.8 1 0.6 0.8 0.7 1c0.1 0.3 0.2 0.6 0.3 1.1 0.2 0.4 0.7 2.2 0.8 2.4l0.1 1.1c-0.1 0.2-0.1 0.9-0.3 1.3-0.1 0.3-0.2 0.7-0.5 1-0.2 0.3-0.4 0.4-0.4 0.7 0.1 0.4-0.1 0.5-0.1 0.5l-0.9 0.5c0 0-0.7 0.8-1.5 0.7-0.9 0-1.4-0.2-1.8-0.4-0.3-0.3-0.6-0.5-0.6-0.5l-0.4-0.5-0.2-0.7-0.4-0.7c0 0 0.1-0.6 0.2-0.9 0.2-0.4 0.7-1 0.7-1 0 0 0.6-0.3 0.6 0.2-0.1 0.4-0.4 0.7-0.3 1.1 0 0.4-0.2 0.6 0.2 1 0.4 0.4 1.1 0.6 1.3 0.8 0.2 0.2 0.5 0.4 1 0.3 0.5-0.1 1.4-0.6 1.7-1 0.3-0.5 0.6-1.2 0.7-1.9 0.1-0.7 0-1.7-0.1-2.1-0.2-0.4-0.7-1.9-0.9-2.3-0.3-0.4-0.6-1-0.6-1.1l-0.6-0.6c0 0-0.1-0.2-0.4-0.7-0.3-0.6-0.6-0.9-0.9-1.3-0.3-0.4-0.6-0.9-0.8-1.4-0.3-0.6-0.4-0.8-0.6-1.5-0.3-0.7-0.5-1.3-0.6-1.5l-0.2-0.9-0.1-0.8c-0.1-0.3-0.1-0.6-0.1-0.9 0-0.3-0.2-1.2-0.2-1.6-0.1-0.4-0.3-0.9-0.1-1.2 0.1-0.2 0.2-0.8 0.2-0.8 0 0-0.1-0.3-0.6-0.2-0.5 0.2-0.7 0.1-1 0.1-0.3 0.1-0.4 0.3-1 0.2-0.6 0-1.1-0.1-1.5 0-0.4 0.1-0.6 0.1-1.1 0.1-0.4 0-0.6 0.3-1 0.3-0.4 0-1.1 0.1-1.3 0.1-0.1-0.1-0.3-0.1-0.7 0-0.4 0.1-0.7 0-1.1 0.1-0.4 0-0.7 0.3-1 0.2-0.4-0.1-1.9 0.1-2.4 0.1-0.6 0-1.7 0.4-2.1 0.3-0.4-0.1-1.4-0.1-1.7 0-0.3 0-0.8 0.2-1.2 0.2-0.3 0.1-1 0.1-1.3 0.1-0.3-0.1-0.8 0.1-1 0.1l-0.7 0.1c-0.1 0.2-0.3 0.5-0.2 0.8 0.1 0.3 0.3 0.8 0.1 1.1-0.1 0.3-0.2 1.1-0.1 1.4 0 0.4 0 0.6 0 1-0.1 0.4 0 0.7 0 0.7 0 0 0.5-0.2 1-0.1 0.5 0 1.2 0 1.5-0.1l1.5-0.1c0.2 0.1 1.4 0 1.8 0 0.4-0.1 1.3-0.4 1.9-0.3 0.6 0.1 2.1-0.2 2.3-0.2 0.2 0 1.2-0.1 2.2-0.1 1 0.1 2.1 0 2.3-0.1 0.3-0.1 1.9-0.1 2.2-0.1 0.3 0 1.1-0.4 1.4-0.4l1.1 0.1 1.2-0.2h0.8 0.2l0.2 0.6c0 0-0.3 0.3-0.7 0.3-0.4 0-1.2 0-1.5 0.1-0.2 0.1-0.9 0-1.3 0.1-0.3 0-1 0.2-1.3 0.1-0.3-0.1-1.6 0.1-1.9 0.2h-1.5c-0.3 0-0.9 0-1.2 0.1-0.3 0.1-1.2 0.1-1.6 0.1-0.4 0.1-0.8 0-1 0-0.2 0-0.2 0.2-0.9 0.2-0.6 0-1.5 0.1-1.7 0.1-0.3 0-0.6 0.1-0.8 0.1-0.3 0.1-0.6 0.1-1 0-0.4 0-1 0-1.4 0.1-0.4 0.2-0.5 0.2-1 0.2-0.6 0-0.9 0-1.3 0.1-0.5 0-0.6 0.1-0.8 0h-0.7c-0.1 0.2-0.2 0-0.3 0.8-0.1 0.8-0.6 2.3-0.9 3-0.3 0.7-1.2 3.1-1.6 3.7-0.4 0.5-1.2 2.2-1.5 2.5-0.3 0.3-0.7 1.1-0.9 1.5-0.1 0.4-0.4 1.3-0.1 2 0.3 0.7 1 1.5 1 1.5l1 0.7 0.8 0.2 1.2 0.1 0.8-0.4 0.4-0.7c0.1-0.1 0.4-0.5 0.4-0.8 0-0.3 0-1.3-0.1-1.4h-0.5l-0.7-0.1-0.2-0.7c0.3-0.2 0.6-0.3 0.9-0.2 0.3 0.2 0.8 0.5 1.1 0.8 0.3 0.4 0.5 0.9 0.5 1.4-0.1 0.5-0.2 1.2-0.6 1.6-0.4 0.5-0.3 0.7-0.8 1-0.5 0.2-1.3 0.6-1.7 0.7-0.4 0.1-1.7 0.3-1.7 0.3l-1.3 0.1-0.3 0.1 0.4-0.4 0.5-0.4 0.4-0.4c-0.1-0.2-0.2-0.2-0.5-0.2-0.4-0.1-0.5-0.3-0.7-0.4l-0.6-0.5-0.1-0.6-0.4-0.7-0.1-0.7c0-0.2-0.2-0.6-0.1-1 0.2-0.3 0.3-1.2 0.4-1.3l0.7-1.2 0.5-0.9c0 0 0.7-1.1 1-1.5 0.2-0.4 0.5-1.1 0.8-1.8 0.3-0.6 0.8-1.7 0.9-1.9 0.1-0.2 0.2-0.3 0.3-0.7 0.1-0.3 0.2-1.1 0.4-1.5 0.1-0.4 0.2-1 0.3-1.2 0.1-0.3 0.1-0.4 0.2-0.8 0-0.4 0.1-1.6 0.1-2.1 0-0.5 0.1-0.7 0.1-0.9l-0.1-0.7-0.2-0.3c-0.3 0.1-0.4 0.1-0.4 0.4 0 0.3-0.2 1.5-0.4 2.3-0.3 0.7-1 2.3-1.1 2.5l-0.4 0.9c0 0.2-0.3 0.7-0.5 1-0.2 0.4-0.6 1-0.6 1l-0.4 0.8-1 1.4c-0.1 0.1-0.7 1.2-1 1.5-0.3 0.4-1.1 1.6-1.3 1.8-0.1 0.1-0.6 1.1-0.9 1.4-0.2 0.4-0.4 1-0.6 1.2l-0.6 1.7c0 0.1-0.2 0.8-0.1 1.1 0 0.3-0.1 1.3 0 1.7 0.2 0.3 0.4 0.5 0.4 0.9 0 0.3 0.3 0.8 0.3 0.8l-1.1 0.4 0.1-0.8-0.3-1c-0.1-0.2-0.2-1.1-0.3-1.5 0-0.4 0.1-1.2 0.2-1.5 0.1-0.2 0.3-0.5 0.3-0.8 0-0.4 0.3-1.3 0.5-1.6 0.2-0.3 1-2.1 1.3-2.5 0.3-0.4 1.2-1.5 1.5-2 0.3-0.5 1.3-1.7 1.7-2.3 0.4-0.5 0.7-1.2 1.2-2.1 0.4-0.9 1-2 1.2-2.5 0.2-0.5 0.5-1.3 0.7-1.8 0.2-0.5 0.4-1.2 0.5-1.6 0-0.3 0.2-0.8 0.2-1.3 0.1-0.5 0-0.9 0.1-1.3 0.1-0.3 0.2-0.3 0.2-0.3z"/>
			<path id="&lt;Path&gt;" class="s0" d="m419.9 265.5c0.3 0.1 0.4 0 0.7 0.6 0.3 0.6 0.6 0.8 0.8 1.1 0.2 0.3 0.2 0.9 0.2 1.3 0 0.5 0 1.2 0.1 1.5 0.1 0.3 0.2 0.9 0.3 1.1l0.4 1.1 0.8 1.5-0.2 0.5c-0.2 0.3-0.8 0.9-1.3 1.1-0.5 0.1-1.2 0.1-1.3 0.3-0.1 0.2-0.3 0.4-0.2 0.7 0.2 0.3 0.4 0.9 0.2 1.2-0.2 0.3-0.2 0.8-0.2 1.1v0.9l-0.8 0.2-0.1-0.4 0.2-1c0-0.2-0.1-1.4-0.1-1.8 0-0.4 0.3-1-0.1-1.1-0.3-0.1-1.1-0.1-1.4-0.1l-0.9-0.3-0.7-0.2c0 0-0.4-0.3-0.2-0.8 0.3-0.5 0.6-0.5 0.7-0.9 0.2-0.5 0.2-1 0.3-1.4 0.2-0.3 0.4-0.9 0.5-1.1 0.2-0.2 0.2-0.5 0.3-1 0.1-0.4-0.1-1.2 0-1.5 0.1-0.4 0.5-0.9 0.6-1.1l0.3-0.7 0.5-0.6c0 0 0.3-0.3 0.6-0.2z"/>
			<path id="&lt;Compound Path&gt;" fill-rule="evenodd" class="s0" d="m288.8 116l-16.9 16.3-0.7-0.7 17.6-17 16.9 17.1-0.7 0.7m-125.2 102l0.1-41c0-10 7.9-18.1 17.8-18.1 9.9 0 17.9 8.1 17.9 18.1v4.3l3.2-1.4v-5.7l5.9-2.5v5.5l4.3-2v-5.5l6.1-2.6v5.4l4-1.8v-5.5l5.7-2.5v5.5l3.1-1.4v-5.6l5.8-2.5v5.4l3.5-1.5v-5.4l5.8-2.6v5.4l4.2-1.9v-5.4l5-2.2v-3.5l-5.9-11.1 0.9-0.4 5.7 10.8c4.3-1.9 9.9-2.9 15.8-2.9 5.4 0 10.3 0.8 14.2 2.3l6.9-10.4 0.8 0.5-7 10.7v5.1l5.6 3.4v4.5l3.3 2v-4.4l5.6 3.1v4.8l3.1 1.9v-4.7l5.6 3.2v4.9l3.3 2v-4.8l6.1 3.5v5l2.8 1.8v-5.1l5.8 3.4v5.2l3.4 2.1v-5l5.8 3.2v5.5l3.6 2.1v-5.5l5.7 3.4v5.6l3.8 2.3v-5.5l6.4 3.7v5.9l4.3 2.6v-5.7l7.3 4.1v26.4l-37.5 37.5-0.7-0.7 37.2-37.2v-24.4l-3.3 2.8v6.3l-5 4.5v-6.2l-3.3 2.8v6.3l-5 4.7v-6.5l-3.9 3.3v6.6l-5.1 4.7v-6.7l-4 3.4v6.8l-5.1 4.7v-6.9l-3.9 3.4v6.8l-5 4.6v-7l-3.8 3.3-0.6-0.8 5.4-4.6v6.8l3-2.8v-6.7l5.8-5.2v6.8l3.2-2.9v-6.7l6-5.2v6.6l3.1-2.9v-6.6l5.9-4.9v6.3l3-2.9v-2.3l-51.1-31.5c-6.9 4-17.2 6.4-28.9 6.4q-3 0-6.2-0.3c-12.7-0.9-23.8-4.3-31.3-9.1l-38.6 17c-2.2 6.9-8.7 12.2-16.3 12.5l0.2 0.2v7.4l2.5 3.1v-7.3l5.4 5.8v7.8l2.8 3.4v-7.9l5.9 6.4v8.6l3.2 3.7v-8.3l5.8 6.2-0.7 0.6-4.1-4.3v8.5l-5.2-6v-8.6l-3.9-4.2v8l-4.8-5.7v-7.8l-3.4-3.6v7.6l-4.5-5.6v-7.4l-2.6-2.8v7.2l-4.4-5.6v-6.6l-3.3-3.7v6.8l-4.2-5.4v-6.3l-3-3.2v26.3l44.8 58.1-0.8 0.6zm105.6-29q3.1 0.2 6.1 0.2c11.3 0 21.3-2.3 27.9-6l-16.2-9.9c-4 1.5-9.1 2.4-14.5 2.4-6.2 0-11.8-1.2-16.1-3.1l-17.5 7.7c7.2 4.5 18 7.8 30.3 8.7zm-69.8 7.6l56.6-24.9v-20.2l-4 1.8v5.4l-6.2 2.7v-5.4l-3.8 1.8v5.4l-5.5 2.4v-5.4l-3.8 1.7v5.5l-5.2 2.2v-5.4l-3.6 1.6v5.5l-6.1 2.7v-5.5l-4.1 1.8v5.5l-6.2 2.9v-5.5l-4 1.6v5.7l-4.1 1.8zm-17.3 12.8c7.7 0 14.2-5.3 16.3-12.3v-0.1-20.1c0-9.4-7.6-17-16.9-17.1-9.3 0.1-16.9 7.7-16.9 17.1v12.9l3.9 4.4v6.3l2.3 2.8v-6.5l5.3 5.9v5.6q1.1 0.4 2.3 0.7v-3.3l3.6 3.7zm-6 0l2.3 3v-2.4q-1.2-0.2-2.3-0.6zm179.1 4.7v-2.8l5.4-4.5v6.1l3-2.7v-6.3l4.1-3.5-5.1-2.8v5.8l-6.4-3.9v-5.8l-4.4-2.6v5.6l-5.8-3.6v-5.5l-3.7-2.2v5.5l-5.5-3.4v-5.5l-3.9-2.1v5.2l-5.3-3.4v-5.2l-3.8-2.2v5.1l-4.9-2.9v-5l-4.1-2.4v4.8l-5.3-3.1v-5l-3.5-2v4.8l-5.1-3.2v-4.7l-3.6-2v4.5l-5.3-3.3v-4.5l-4.6-2.8v19.7zm-82.8-39.5c5.2 0 10-0.9 13.9-2.3v-25.9c-3.9-1.4-8.7-2.2-13.9-2.2-5.9 0-11.4 1-15.5 2.8v24.6c4.1 1.8 9.5 3 15.5 3z"/>
			<path id="&lt;Path&gt;" class="s0" d="m328.4 293.4c0 0 1.1-0.5 1.9-0.9 0.8-0.5 0.6-0.3 1.4-0.7 0.8-0.3 1.3-0.5 1.6-0.5 0.3 0.1 1.2 0 1.6 0 0.5 0 0.9 0.1 1.3 0.1 0.3-0.1 0.7-0.4 1.1-0.2 0.5 0.2 0.9 0.4 1.3 0.4 0.3 0.1 0.6 0.2 1.4 0.6 0.8 0.3 0.6 0.6 1.3 1.3 0.6 0.7 1 1 1.1 1.5 0.1 0.5 0.7 1.6 1.2 2 0.5 0.4 0.7 1.1 1.5 1.5 0.7 0.3 1.2 0.4 1.5 0.4 0.2 0.1 0.9 0.2 0.9 0.2v0.7c0 0-1.3-0.1-2-0.4-0.7-0.3-1.9-1.3-2.6-2.1-0.6-0.7-1.2-1-1.8-1.6-0.7-0.6-1.8-1.5-2-1.9-0.2-0.3 0.3-0.1-1-0.6-1.2-0.6-1.6-0.6-2.2-0.6-0.7 0-0.9-0.5-1.5-0.4-0.6 0.1-0.6 0-1.4 0.2-0.7 0.3-0.8 0.2-1.2 0.4-0.4 0.2-0.8 0.4-1.1 0.4-0.2 0-0.1 0-0.8 0.3-0.7 0.2-0.6 0.2-1 0.3-0.3 0.1-0.7 0.2-0.7 0.2z"/>
			<path id="&lt;Compound Path&gt;" fill-rule="evenodd" class="s0" d="m336.1 292.1v-35.1l-12.5-1.1v36h-1v-36l-12.4 0.8v35.3h-1v-35.2l-4.1 0.2 17.4-15.7 0.3-0.3 16.7 16.3-2.4-0.2v35zm0.7-36l-13.5-13.3 0.3 12.1z"/>
			<path id="&lt;Path&gt;" class="s0" d="m326.2 260.4l2.3 0.2v6.7l-2.3-0.2z"/>
			<path id="&lt;Path&gt;" class="s0" d="m331.8 260.9l2.1 0.1v6.8l-2.1-0.2z"/>
			<path id="&lt;Path&gt;" class="s0" d="m326.2 274.2l2.3 0.1v6.8l-2.3-0.1z"/>
			<path id="&lt;Path&gt;" class="s0" d="m331.8 274.5l2.1 0.1v6.8l-2.1-0.1z"/>
			<path id="&lt;Compound Path&gt;" fill-rule="evenodd" class="s0" d="m224.4 292.4v-33.9l-2.7 0.3 17.2-16.5 0.4-0.4 17.7 16.1-18-1.2-13.6 1.5v34.1zm29.8-35.6l-14.4-13-0.3 12zm-15-14.1z"/>
			<path id="&lt;Path&gt;" class="s0" d="m238.5 256.3h1v36.1h-1z"/>
			<path id="&lt;Path&gt;" class="s0" d="m252.9 257.1h1v35.4h-1z"/>
			<path id="&lt;Path&gt;" class="s0" d="m235.9 262.5v6.6l-2.3 0.2v-6.6z"/>
			<path id="&lt;Path&gt;" class="s0" d="m230.3 262.9v6.7l-2.1 0.2v-6.7z"/>
			<path id="&lt;Path&gt;" class="s0" d="m235.9 276.2v6.8l-2.3 0.1v-6.8z"/>
			<path id="&lt;Path&gt;" class="s0" d="m230.3 276.5v6.8l-2.1 0.1v-6.8z"/>
			<path id="&lt;Path&gt;" class="s0" d="m188.3 352.1v-59.7l99.4-0.8v1l-98.4 0.8v5.4h96.8v1h-96.8v51.3h72.5v1z"/>
			<path id="&lt;Path&gt;" class="s0" d="m194.5 316.1h7.5v11.5h-7.5z"/>
			<path id="&lt;Path&gt;" class="s0" d="m194.5 342.8h7.5v8.8h-7.5z"/>
			<path id="&lt;Path&gt;" class="s0" d="m198.3 330.6c2.5 0 4.6 2.1 4.6 4.6 0 2.6-2.1 4.7-4.6 4.7-2.6 0-4.7-2.1-4.7-4.7 0-2.5 2.1-4.6 4.7-4.6z"/>
			<path id="&lt;Path&gt;" class="s0" d="m206.5 320.5h14.3v31.1h-14.3z"/>
			<path id="&lt;Path&gt;" class="s0" d="m227.8 316.1h7.4v11.5h-7.4z"/>
			<path id="&lt;Path&gt;" class="s0" d="m227.8 342.8h7.4v8.8h-7.4z"/>
			<path id="&lt;Path&gt;" class="s0" d="m231.5 330.6c2.6 0 4.6 2.1 4.6 4.6 0 2.6-2 4.7-4.6 4.7-2.5 0-4.6-2.1-4.6-4.7 0-2.5 2.1-4.6 4.6-4.6z"/>
			<path id="&lt;Path&gt;" class="s0" d="m225.1 306l-4.3 5.9h-14.3l-4.3-5.9z"/>
			<path id="&lt;Path&gt;" class="s0" d="m241 320.5h14.3v31.1h-14.3z"/>
			<path id="&lt;Path&gt;" class="s0" d="m259.6 306l-4.3 5.9h-14.3l-4.3-5.9z"/>
			<path id="&lt;Compound Path&gt;" fill-rule="evenodd" class="s0" d="m295.5 269.6v-5.6h-5v5.6h-7.1v-5.6h-5.3v5.6h-6.5v-5.6h-5.4v5.6h-6.9v-5.6h-5.9v-1h6.9v5.6h4.9v-5.6h7.4v5.6h4.5v-5.6h7.3v5.6h5.1v-5.6h7v5.6h5.7v-5.6h7.5v1h-6.5v5.6zm45.3 41.5l0.2-0.3 6-0.6v-24.3l-1.7-3.1-8.4 8.7-0.7-0.7 8.6-8.9-0.6-1-0.3-0.6 23.7-4.7 23.8 5-2.1 5v20l90.3-9.8 5.6 5.5-148.7 17.3zm28.7-3.3l18.8-2.1v-19.7l-18.8-3.4zm-21.6 2.4l20.6-2.3v-25.2l-20.6 3.6zm-9.6 7.3l144.7-16.8-3.8-3.7-137.7 14.9zm50.2-32.4l1.5-3.6-21.8-4.6 1.2 4.8zm-60 103q-4-1.6-8.5-2.6v0.2h-1v-0.5c-6.7-1.5-14-2.2-21.8-2.5q-1.8 0-3.6 0c-10.6 0-20.4 1.6-28.7 4.4l-0.7 0.2v-28.9h0.1l-3.3-6.9 0.3-0.2-0.1-0.2h0.2c3.2-17.3 12.3-31.1 24.2-36.4v-16.9c0.1-5.8 4.8-10.6 10.7-10.6 3.6 0 6.8 1.8 8.7 4.6l23.7-0.3v50q1.6 4.6 2.5 9.6l-0.4 0.1v0.1l0.4 0.1-2.1 7.5 0.1 29.5zm-41.9-90.3v16.5c3.1-1.3 6.3-1.9 9.7-1.9 3.3 0 6.6 0.6 9.7 1.9v-16.5c-0.1-5.3-4.4-9.6-9.7-9.6-5.3 0-9.7 4.3-9.7 9.6zm41.1 41v-46.4l-22.1 0.3c0.9 1.6 1.3 3.3 1.4 5.1v16.9c8.8 3.9 16.2 12.7 20.7 24.1zm2.4 12q-0.9-4.8-2.4-9.1v-0.1c-5.8-16.8-17.8-28.3-31.4-28.2-16-0.1-29.6 15.6-33.8 37.2 9.5-3.8 21.1-6 33.6-6 12.7 0 24.4 2.3 34 6.2zm-43.8 2.3q4.4-0.4 9-0.4l0.8-7.1c-4.5 0-8.9 0.3-13.1 0.8zm33 2.3l2.7-6.3c-7.5-2.1-16-3.4-24.9-3.5l-0.8 7.1c8.2 0 15.9 1 23 2.7zm-54.2 2.3c6-2.1 12.9-3.7 20.2-4.5l-3.3-6.6c-7.2 1-13.9 2.8-19.7 5.2zm63.2 0.4l1.8-6.3q-3.4-1.4-7.2-2.5l-2.6 6.3q4.2 1.1 8 2.5zm-41.7 23.8q3.4-0.2 7-0.2 0.8 0 1.6 0v-28q-4.4 0-8.6 0.4zm10.7-0.2c7.7 0.3 15 1 21.7 2.5v-27.9c-7-1.7-14.7-2.6-22.8-2.6v28q0.5 0 1.1 0zm-32.1 4.2c6.2-2 13-3.4 20.4-3.9v-27.8c-7.4 0.8-14.3 2.3-20.4 4.5zm63 1l-0.1-27.8q-3.8-1.5-8.1-2.6v27.9q4.3 1 8.2 2.5zm-23.3-94.2z"/>
			<path id="&lt;Path&gt;" class="s0" d="m297.2 271.8v1.2l-0.1 0.8c0.1 0.2 0.3 0.7 0.2 1-0.1 0.4 0.1 1 0.1 1l0.1 0.3c0.2 0 0.8-0.1 1.2 0 0.4 0 1.2-0.1 1.6-0.1 0.4 0.1 1.2-0.1 1.2 0.1 0 0.2 0 0.9 0 1.2 0 0.3 0.1 0.7-0.2 0.8-0.2 0.1-1 0.1-1.3 0-0.4-0.1-0.8 0-1.1 0-0.3 0-1 0-1 0h-0.5c0 0-0.3 0.6-0.2 0.9 0.1 0.2 0.2 0.9 0.1 1.4 0 0.5 0 1.2 0.1 1.5 0 0.4-0.1 1.2-0.1 1.5 0 0.4 0 0.9 0.1 1.3 0.1 0.4 0.2 0.7 0 1.3-0.1 0.6 0 0.9 0 0.9v0.7l-1.5 0.1-0.1-0.1 0.1-0.8c0-0.2 0-0.9-0.1-1.5-0.1-0.5-0.1-2-0.1-2 0 0 0.2-0.8 0.1-1.5-0.1-0.7-0.3-1.3-0.1-1.8 0.2-0.6 0-0.8 0-1.1 0-0.4-0.1-0.9-0.5-0.9-0.4-0.1-0.8 0-1.4 0-0.5 0-0.9-0.1-1.1-0.1l-1 0.1-0.4-0.4 0.1-0.5v-0.9c0.1-0.2 0.1-0.3 0.4-0.2 0.3 0 0.8 0 1.1 0h0.9l1 0.1 0.6-0.1 0.2-0.5-0.1-1.3c0.1-0.3 0.1-0.8 0.1-1.1 0-0.3-0.2-0.5-0.2-0.8 0-0.2-0.1-0.6 0.3-0.7 0.3-0.2 0.7-0.3 0.7-0.3l0.4 0.2z"/>
			<path id="&lt;Compound Path&gt;" class="s0" d="m285.9 297.5c2.9-1.2 6.5-1.8 10.4-1.8 3.8 0 7.3 0.6 10.2 1.8l-0.4 0.9c-2.7-1.1-6.1-1.7-9.8-1.7-3.8 0-7.3 0.6-10 1.7zm20.4 2.2v-1l3.5 0.1v-6.8h1v6.8h0.6v-6.8h1v6.8h5.7v-6.8h1v6.8h0.6v-6.8h1v6.8l7.5 0.1v1z"/>
			<path id="&lt;Path&gt;" class="s0" d="m286.1 306v5.9h-10.8l-4.2-5.9z"/>
			<path id="&lt;Path&gt;" class="s0" d="m317.6 306l-4.3 5.9h-7v-5.9z"/>
			<path id="&lt;Path&gt;" class="s0" d="m328.4 308.5c0 0 1.1 0.5 1.5 0.8 0.4 0.2 0.4 0.1 1.1 0.5 0.7 0.4 0.9 0.5 1.2 0.8 0.3 0.4 0.9 0.8 1.5 1.6 0.6 0.7 0.7 1.2 0.9 1.6 0.2 0.4 0.3 0.9 0.6 1.3 0.2 0.3 0.9 1.6 1.2 1.8 0.3 0.1 1.1 0.3 1.1 0.3l-0.9 1.2c0 0 0 0-0.4-0.3-0.3-0.3-1-0.3-1.4-0.7-0.4-0.4-0.4-0.4-0.7-1.1-0.3-0.7-0.2-0.9-0.6-1.2q-0.6-0.5-0.9-1.3c-0.2-0.6-0.5-1.3-0.8-1.6-0.4-0.4-1-0.8-1.3-1.3-0.2-0.5-0.3-0.4-0.7-0.7-0.3-0.4-0.6-0.6-0.9-0.5-0.3 0.1-0.7 0.2-0.7 0.2v-1.4z"/>
			<path id="&lt;Path&gt;" class="s0" d="m335.6 382.7v-64.7h0.1 0.9v63.7h23.7v1z"/>
			<path id="&lt;Path&gt;" class="s0" d="m328.5 323.1c0 0 0.1 1.8 1.7 3.6 1.6 1.8 1.4 1.3 2 1.6 0.6 0.2 1.7 0.7 2.2 1.4 0.5 0.8 0.9 1.6 1.5 2.1 0.5 0.4 0.3 1.4 0.3 1.4v49h10.6l35.2 28.7v35.5h-6.2v-7.1h-0.7v-21.2h3.3l-42.3-35.4-7.4 5.7-0.3-29.5 2.3-7.4c0 0-0.6-3.6-1.2-5.6-0.6-1.9-1.2-4.4-1.2-4.4z"/>
			<path id="&lt;Path&gt;" class="s0" d="m301.9 302.1v6.4q-1.7-0.4-3.6-0.5v-5.9c0-1 0.8-1.8 1.8-1.8 1 0 1.8 0.8 1.8 1.8z"/>
			<path id="&lt;Path&gt;" class="s0" d="m292.3 300.3c1 0 1.8 0.8 1.8 1.8v5.9q-1.9 0.1-3.6 0.5v-6.4c0-1 0.8-1.8 1.8-1.8z"/>
			<path id="&lt;Path&gt;" class="s0" d="m298.6 313.7c6.8 6.2 12.6 25.9 12.7 32l-0.1 0.3h-0.9v-0.3c0-6.1-7.1-28.9-13.9-32.3h-0.4c-6.7 3.7-13.8 26.2-13.7 32.3v0.2l-1 0.1v-0.3c0.1-6 5.6-25 12.3-31.6-13.5 4.6-20.7 23.8-23.2 34.9l-1-0.2c2.8-11.8 10.4-32.9 26.3-36.3l0.4-0.2v0.1h0.3v-0.2l0.3 0.1 0.3-0.1 0.1 0.2c16.2 2.9 24.1 24.4 26.9 36.4l-0.9 0.2c-2.7-11.5-10.2-31.5-24.5-35.3z"/>
			<path id="&lt;Path&gt;" class="s0" d="m302.3 364.3l5.9-5.2 5.3 6.7v11.8c-3.5-0.7-7.3-1.2-11.1-1.5z"/>
			<path id="&lt;Path&gt;" class="s0" d="m281.1 377.6c-3.9 0.3-7.6 0.9-11.2 1.6v-11.9l5.3-6.7 6 5.2z"/>
			<path id="&lt;Compound Path&gt;" fill-rule="evenodd" class="s0" d="m241.7 418.6l21-19.4 0.3-0.4 16.4 19.8zm35.6-1l-13.9-16.9-2.6 16.9zm-2.8 58.4v-37.2h7.9v7h8.1v-7h8.3v7h6.7v-7h5.8v-20.2h-22.1l32.2-25.1c-7.2-2.1-15.7-3.5-24.2-3.8q-1.8 0-3.7 0c-10.4 0-20.2 1.6-28.6 4.4l-0.3-1c8.5-2.8 18.3-4.4 28.9-4.4q1.9 0 3.7 0c8.9 0.3 17.7 1.8 25.1 4l13.5-10.4 0.3-0.3 43.6 36.6h-17.9v20.7 6.5h5.9v-7h8.5v7h7.7v-7h8.2v37.2zm102.4-58.4l-40.9-34.3-43.9 34.3h7.8l36.2-28.7 33.1 28.7zm-31.2 21.2v7h6.5v-7h8.6v-20.3l-24.7-20.5-23.8 20.2v20.6h2.3v7h7v-7h8.7v7h6.4v-7zm-70.3 36.2h115.6v-35.2h-6.2v7h-9.6v-7h-6.6v7h-7.9v-7h-7.6v7h-8.4v-7h-7.1v7h-8.3v-7h-6.8v7h-9v-7h-7.1v7h-8.7v-7h-6.3v7h-10.1v-7h-5.9zm85.8-57.4h6.5l-31.7-27.4-34.5 27.4h9.9l24.6-20.9zm30.3 57.9v-0.5z"/>
			<path id="&lt;Compound Path&gt;" class="s0" d="m277.5 417.6h16.3v1h-16.3zm-3 0.5h1v21.7h-1z"/>
			<path id="&lt;Path&gt;" class="s0" d="m275 418.1h19.7v21.2h-3.7v7h-9.2v-7h-6.8z"/>
			<path id="&lt;Compound Path&gt;" class="s0" d="m359.7 324.4h1v39.4h-1zm-95.4 62h1v15.3h-1zm126.8 58v-33h-11.3v-1h13.6l-33.7-27.9v-13.4h1v13l35.4 29.3h-4v33z"/>
			<path id="&lt;Path&gt;" class="s0" d="m294.8 175.5v-10.2c0.8 0.1 1.5 0.2 2.3 0.3v10.1c-0.8-0.1-1.5-0.1-2.3-0.2z"/>
			<path id="&lt;Path&gt;" class="s0" d="m289.2 187.5q-1.2 0-2.4 0v-5.6q1.2-0.1 2.4-0.1z"/>
			<path id="&lt;Path&gt;" class="s0" d="m279.3 187v-5.7q1.2 0.2 2.4 0.3v5.7q-1.2-0.1-2.4-0.3z"/>
			<path id="&lt;Path&gt;" class="s0" d="m286.8 164.9q1 0 1.9 0h0.5v10.2c-0.4 0-0.9 0-1.3 0-0.4 0-0.7 0-1.1 0z"/>
			<path id="&lt;Path&gt;" class="s0" d="m281.6 175.4q-1.2 0.1-2.3 0.3v-9.8q1.1-0.3 2.4-0.5z"/>
			<path id="&lt;Path&gt;" class="s0" d="m373 287.9l2.3 0.5v6.2l-2.3-0.4z"/>
			<path id="&lt;Path&gt;" class="s0" d="m378.1 288.8l2.3 0.4v6.3l-2.3-0.4z"/>
			<path id="&lt;Path&gt;" class="s0" d="m383.2 289.7l2.2 0.3v6.3l-2.2-0.4z"/>
			<path id="&lt;Path&gt;" class="s0" d="m355.1 289.6v6.1l-2.6 0.5v-6.1z"/>
			<path id="&lt;Path&gt;" class="s0" d="m363.3 288.2v6.2l-2.3 0.4v-6.2z"/>
			<path id="&lt;Path&gt;" class="s0" d="m383.9 402.4v-82.1l-4.1 0.7v5.4l-5.8 1.1v-5.3l-3.9 0.9v5.3l-5.9 1.2v-5.3l-3.9 0.8-0.3-0.9 5.2-1.2v5.4l3.9-0.8v-5.3l5.9-1.3v5.3l3.8-0.7v-5.4l6.2-1.2 0.2 1-0.3 0.1v82.3z"/>
			<path id="&lt;Path&gt;" class="s0" d="m349.9 316.5l12.8-1.5v9.1l-2.6 0.7v21.3l-10.2 0.9z"/>
			<path id="&lt;Path&gt;" class="s0" d="m403.1 363.8v-37.4l-3.1-1.1v4.2l-4.4-1.4v-4.4l-2.8-1v4.3l-4.3-1.3v-4.3l-4.2-1.4 0.3-0.9 4.9 1.6v4.3l2.3 0.6v-4.3l4.8 1.7v4.4l2.4 0.8v-4.3l5.1 1.8v38.1z"/>
			<path id="&lt;Path&gt;" class="s0" d="m389.8 336.7c0-2.6 2-4.6 4.5-4.6 2.6 0 4.6 2 4.6 4.5v15.8l-9.1-1.3z"/>
			<path id="&lt;Path&gt;" class="s0" d="m367.1 337.3c0.1-2.9 2.4-5.3 5.3-5.3 3 0 5.3 2.4 5.4 5.3v14.6l-10.7 1.2z"/>
			<path id="&lt;Compound Path&gt;" fill-rule="evenodd" class="s0" d="m491.7 327.8h-0.1c-2.4 0-4.4-1.9-4.4-4.4 0-0.9 0.3-1.8 0.8-2.5v-6.3h1v5.3c0.7-0.5 1.6-0.9 2.6-0.9h0.1l44.9 1.1-0.1 1-44.8-1.1h-0.1c-1.9 0-3.4 1.5-3.4 3.4 0 1.9 1.5 3.4 3.4 3.4h0.1l43.8 0.5v1zm-88.6 100.5v-58.9l-18.7-2.5-24.4 2.7-3.3-5.8 27.7-3 0.1-0.1 23.3 3.1-3.7 5.3v59.2zm-44.8-63.6l2.2 3.8 24-2.6 18.9 2.5 2.6-3.8-21.6-2.8z"/>
			<path id="&lt;Path&gt;" class="s0" d="m475.7 319.6c0-8.5-8.2-15.5-18.3-15.5l27.7-2.8 0.8 14.2z"/>
			<path id="&lt;Compound Path&gt;" fill-rule="evenodd" class="s0" d="m403.8 341.1l-0.4-0.7 30.5-15 33.7 15 0.3 0.1-0.2 1-0.3-0.1h-0.1c-9.1-1.7-19.6-2.6-30.9-2.6-12 0-23.1 1.1-32.5 2.9zm1.9-0.8c9.1-1.6 19.5-2.5 30.7-2.5 9.8 0 19.1 0.7 27.3 1.9l-29.8-13.2z"/>
			<path id="&lt;Path&gt;" class="s0" d="m443.5 305.6v24.6l-4.8-2.1q0.1-0.9 0.1-1.8c0-9.8-7.9-17.8-17.6-17.8q-1.3 0-2.4 0.2z"/>
			<path id="&lt;Path&gt;" class="s0" d="m452.1 360.3v-4.5c0.1-2.3 2-4.3 4.4-4.3 2.4 0 4.3 1.9 4.3 4.3v5.4c-2.8-0.3-5.7-0.6-8.7-0.9z"/>
			<path id="&lt;Path&gt;" class="s0" d="m438.9 359.7v-5.1c0-2.4 1.8-4.3 4.1-4.3 2.4 0 4.3 1.9 4.3 4.3v5.4c-2.8-0.1-5.6-0.3-8.4-0.3z"/>
			<path id="&lt;Path&gt;" class="s0" d="m429.2 350.7c2.4 0 4.3 1.9 4.3 4.3v4.7q-4.3 0.1-8.5 0.3v-5c0-2.4 1.8-4.3 4.2-4.3z"/>
			<path id="&lt;Path&gt;" class="s0" d="m411.3 355.9c0-2.5 2-4.4 4.5-4.4 2.4 0 4.4 2 4.5 4.4v4.4q-4.7 0.4-9 1z"/>
			<path id="&lt;Path&gt;" class="s0" d="m438.9 378.7v-5.1c0-2.3 1.8-4.3 4.1-4.3 2.4 0 4.3 2 4.3 4.3v5.4c-2.8-0.1-5.6-0.3-8.4-0.3z"/>
			<path id="&lt;Path&gt;" class="s0" d="m429.2 369.7c2.4 0 4.3 1.9 4.3 4.3v4.7q-4.3 0.1-8.5 0.3v-5c0-2.4 1.8-4.3 4.2-4.3z"/>
			<path id="&lt;Compound Path&gt;" class="s0" d="m451.9 385.4l0.1-1q1.7 0.2 3.4 0.4l-0.2 1q-1.6-0.2-3.3-0.4zm-48.3 0.1c8.2-1.4 17.7-2.1 27.9-2.1q2.6 0 5.3 0 7.3 0.2 14.1 0.9l-0.1 1q-6.8-0.7-14-0.9-2.7 0-5.3 0c-10.2 0-19.6 0.7-27.8 2.1z"/>
			<path id="&lt;Path&gt;" class="s0" d="m403.6 392c7.3-1.1 15.7-1.7 24.7-1.7q4.3 0 8.8 0.2 5.3 0.2 10.4 0.7l-0.1 1q-5-0.5-10.4-0.7-4.4-0.2-8.7-0.2c-8.9 0-17.3 0.6-24.6 1.7z"/>
			<path id="&lt;Compound Path&gt;" class="s0" d="m403.5 398.6c5.7-0.7 12-1 18.8-1 4.9 0 10.1 0.1 15.4 0.6q1.1 0.1 2.2 0.2l-0.1 1q-1.1-0.1-2.2-0.2c-5.3-0.5-10.4-0.7-15.3-0.7-6.7 0-13 0.4-18.6 1.1zm0 8c5.3-0.6 11.1-0.9 17.2-0.9q4.9 0 10.2 0.3l-0.1 1q-5.2-0.3-10.1-0.3c-6.1 0-11.8 0.3-17 0.9zm0 7.7c4.4-0.4 9.2-0.7 14.4-0.7q2.3 0 4.7 0.1l-0.1 1q-2.3-0.1-4.6-0.1c-5.1 0-9.9 0.3-14.3 0.7zm0 7q4.6-0.4 9.8-0.4v1q-5.1 0-9.8 0.4zm-144.1 55.8v-59h1v59.2l-4.1 7.1 38.8-0.1 2-9 1 0.3-2 8.7h24.9l1.7-8.9 1 0.1-1.7 8.8 24.1-0.1-0.2-8.7 0.9-0.1 0.3 8.8h23.9l-1.7-8.7 1-0.1 1.7 8.8h21.1l-2.3-8.7 1-0.3 2.6 9.9-139.8 0.3z"/>
			<path id="&lt;Path&gt;" class="s0" d="m413.1 264.6c0 0 0.4 0.4 0.3 0.7 0 0.3 0 0.9 0.1 1l0.2 0.9-0.5 0.4-0.3 0.5 0.1 0.7 0.5 0.9 0.3 0.5 0.5 0.4 0.5 0.2 0.7-0.4c0 0 0.4-0.1 0.4 0.2 0 0.3-0.3 0.8-0.5 0.9-0.1 0.1-0.4 0.4-0.7 0.4-0.3 0-0.6-0.5-0.9-0.3-0.3 0.1-0.4-0.2-0.5 0.3-0.1 0.5-0.2 1.4-0.1 1.8 0.2 0.4 0.5 1.4 0.4 1.7-0.1 0.4 0 1.3-0.2 1.5-0.2 0.3-0.6 1-0.5 1.2l0.2 1.1 0.4 0.8-2.4 0.2c0 0 0.5-0.1 0.6-0.6 0.1-0.5 0-0.8 0-1.1 0-0.3 0-1.2 0.1-1.5v-1.1c0-0.2-0.3-0.9-0.5-1.2-0.2-0.4-0.4-1-0.2-1.6 0.2-0.5 0.5-1.1 0.5-1.7 0.1-0.6 0-1.1-0.1-1.4 0-0.3-0.1-0.5 0.1-0.7l0.3-0.6-0.1-1.1-0.3-0.6c-0.1-0.2-0.3-0.6-0.2-1 0.1-0.4 0.3-0.5 0.4-0.8 0.1-0.2 0.2-0.5 0.4-0.6l0.5-0.1z"/>
			<path id="&lt;Compound Path&gt;" class="s0" d="m196.3 292.9h1v6.3h-1zm1.5-0.2h1v6.6h-1zm8.9 0h1v6.6h-1zm7.3 0.1h1v6.5h-1zm1.7 0h1v6.6h-1zm7.2-0.3h1v6.8h-1zm1.6 0.1h1v6.7h-1zm7.9 0.2h1v6.6h-1zm1.7-0.2h1v6.8h-1zm6.8 6.7v-6.7h1v6.8zm1.6-6.9h1v6.9h-1zm7.2-0.1h1v6.9h-1zm1.6 0h1v6.9h-1zm6.8-0.3h1v7.2h-1zm1.7 0h1v7.3h-1zm6.5 0h1v7.3h-1zm1.6 0h1v7.2h-1zm7.9 0h1v7.3h-1zm1.8 0h1v7.3h-1zm-72.4 1h1v6.5h-1zm205.6 32c0-6.7 5.3-12.2 11.8-12.2 6.5 0 11.8 5.5 11.8 12.2q0 0.5 0 1l-1-0.1q0-0.4 0-0.9c0-6.2-4.8-11.2-10.8-11.2-6 0-10.8 5-10.8 11.2 0 3.9 1.8 7.2 4.6 9.2v0.1l-0.5 0.8c-3.1-2.2-5.1-5.9-5.1-10.1z"/>
			<path id="&lt;Path&gt;" class="s0" d="m261.2 316.1h7.5v11.5h-7.5z"/>
			<path id="&lt;Path&gt;" class="s0" d="m265 339.9c-2.6 0-4.7-2.1-4.7-4.7 0-2.5 2.1-4.6 4.6-4.6 1.5 0 2.7 0.6 3.6 1.6 0 0-2.5 4.7-2.8 5.6-0.2 0.8-0.7 2.1-0.7 2.1z"/>
			<path id="&lt;Path&gt;" class="s0" d="m261.7 351.6h-0.5v-8.8h2.7c0 0-1 3.4-1.1 3.9-0.1 0.4-0.9 4-0.9 4z"/>
			<path id="&lt;Path&gt;" class="s0" d="m276.3 321.8c0 0-0.7 0.3-0.9 0.9-0.3 0.6-1.3 1.5-1.3 1.5v-3.3h2.9z"/>
			<path id="&lt;Path&gt;" class="s0" d="m336.9 407.7c2.6 0 4.7 2.1 4.7 4.7 0 2.5-2.1 4.6-4.7 4.6-2.5 0-4.6-2.1-4.6-4.6 0-2.6 2.1-4.7 4.6-4.7z"/>
			<path id="&lt;Path&gt;" class="s0" d="m363.3 452.6h3.4v11.3h-3.4z"/>
			<path id="&lt;Path&gt;" class="s0" d="m376.1 452.6h3.4v11.3h-3.4z"/>
			<path id="&lt;Path&gt;" class="s0" d="m287.8 452.6h3.5v11.3h-3.5z"/>
			<path id="&lt;Path&gt;" class="s0" d="m300.7 452.6h3.4v11.3h-3.4z"/>
			<path id="&lt;Path&gt;" class="s0" d="m504.3 354.8h1v32.1h-1z"/>
			<path id="&lt;Path&gt;" class="s0" d="m494.6 420.8l-0.5 1.8c0 0-1.2 1.3-3 1.7-1.7 0.4-7.8 1.9-17.4 2.3-9.6 0.5-14.4-4.2-14.4-4.2 3.1 0.9 12.7 1.6 15 1.4 2.3-0.1 11.2-1.8 12.8-2 1.7-0.3 7.5-1 7.7-1z"/>
			<path id="&lt;Path&gt;" class="s0" d="m438.6 446.4c-0.7-0.8 7.3 3.1 15.4 2 8.1-1.1 14.2-2.4 16.1-2.4 1.9 0 3 0.1 3 0.1l-2.9 3.9-2.7-0.3c0 0-3.5 0.2-6.2 0.6-2.7 0.5-7.8 0.6-11.6 0.4-5.3-0.2-10.3-3.5-11.1-4.3z"/>
			<path id="&lt;Path&gt;" class="s0" d="m448.7 468.3l-0.9 1.9-2.5 2.6c0 0-1.5 0.4-3.6 0.8-2.1 0.4-5.7 1.5-13 0.5-7.4-1-10-4.2-10-4.2 0 0 1.5 0.5 3.5 1.1 2 0.6 8.5 1 13.9 0.8 5.3-0.3 12.7-3.3 12.7-3.3z"/>
			<path id="&lt;Path&gt;" class="s0" d="m506.1 401.5l0.7 1.1c0 0-1.7 1-2.5 1.2-0.8 0.2-2.8 1-8.9-0.1-6.1-1-8.4-4-8.4-4 0 0 4.7 1.4 9.4 2 4.6 0.6 9.2-0.6 9.2-0.6z"/>
			<path id="&lt;Path&gt;" class="s0" d="m403.2 498.2l0.7 1c0 0-1.7 1-2.4 1.2-0.8 0.2-2.9 1-9 0-6.1-1.1-8.3-4-8.3-4 0 0 4.7 1.4 9.3 2 4.6 0.6 9.2-0.6 9.2-0.6z"/>
			<path id="&lt;Path&gt;" class="s0" d="m320.9 496.2c0 0 5 2.1 10.7 1.8 0 0 4.8 0.1 9.9-1.2 5.1-1.3 9.4-2 12.4-2 3 0 8 0.3 14 3.5 0 0-3.9-1.4-7.7-1.3-3.9 0.2-10.6 1-15.4 2.1-4.8 1.1-8.9 1.9-14.4 0.9-5.5-1-9.5-3.8-9.5-3.8z"/>
			<path id="&lt;Path&gt;" class="s0" d="m294.9 508.3c0 0 5 2.1 10.7 1.9 0 0 4.8 0.1 9.9-1.2 5.1-1.4 9.4-2 12.4-2 3 0 8 0.2 14.1 3.4 0 0-4-1.4-7.8-1.2-3.9 0.2-10.6 1-15.4 2.1-4.8 1.1-8.8 1.8-14.4 0.8-5.5-0.9-9.5-3.8-9.5-3.8z"/>
			<path id="&lt;Path&gt;" class="s0" d="m231.3 506.4c0 0 5 2.1 10.7 1.9 0 0 4.7 0.1 9.8-1.2 5.2-1.4 9.5-2 12.5-2 2.9 0 7.9 0.2 14 3.4 0 0-3.9-1.4-7.8-1.2-3.8 0.2-10.6 1-15.4 2.1-4.8 1.1-8.8 1.8-14.3 0.8-5.6-0.9-9.5-3.8-9.5-3.8z"/>
			<path id="&lt;Compound Path&gt;" fill-rule="evenodd" class="s0" d="m394 484.6l15.7-16-3.5-7.1-14.5 14.6-0.7-0.7 98.7-99.2v-26.3l-3.6 3.2v4.9l-4.5 3.9v-4.5l-3.5 3.1v4.8l-4.8 4.6v-4.9l-3.7 3.3v5.1l-3.9 3.9v-5.3l-3 2.5v5.5l-3.9 3.8v-5.4l-3 2.5v5.5l-4.4 4.4v-5.7l-3.5 3v5.7l-4.3 4.4v-5.9l-3.3 2.8v6l-5 5v-6.1l-3.9 3.3v6.3l-4.7 4.7v-6.5l-3.6 3.1v6.6l-5.3 5.3v-6.8l-3.8 3.3v6.8l-5.8 5.9v-7.1l-4.5 3.9v7.3l-6.1 5.9v-7.3l-5.6 5.5-0.7-0.7 7.3-7.3v7.4l4.1-4v-7.2l6.5-5.7v6.9l3.8-3.9v-6.8l5.8-5.2v6.7l3.3-3.4v-6.5l5.6-4.9v6.3l2.7-2.7v-6.3l5.9-5v5.8l3-3v-6l5.3-4.6v5.7l2.3-2.4v-5.7l5.5-4.8v5.5l2.4-2.4v-5.6l5-4.1v5.1l1.9-1.8v-5.6l5-4.1v5l0.7-0.8h-0.3v-37.4c-2.1-0.2-3.8-1.8-3.8-4 0-1.5 0.6-2.7 1.7-3.4v-5.9l23.4-9.3 48.4 1v1l-48.2-1-22.6 8.9v4.7l0.4-0.1 23.7-9.3 0.3 0.9-23.9 9.4h-0.1c-1.3 0.5-2.1 1.6-2.2 3.1 0.1 1.7 1.3 2.9 3.1 3l22.7-8.9 0.2 0.5h0.5v20.9h12.6q0.5 0 0.9 0.2v-18.3l23.2 0.7v-0.2l0.4 0.2 6.9 0.2v1l-6.7-0.2-2.8 6.2-0.9-0.4 2.6-5.9-10.6-0.3 1.7 4.5-0.9 0.4-1.9-4.9-9.4-0.3 5.9 7.6-0.8 0.6-5.7-7.3v16.8c1 0.7 1.7 1.8 1.7 3.1 0 2-1.6 3.7-3.6 3.7h-12.6v30.8h23.7v1h-24l-95.7 97.9zm74.1-111.2l0.5-0.5v-5.1l5.7-5v4.8l2.8-2.7v-4.9l5.5-4.8v4.5l2.6-2.2v-4.9l4.5-4.1v-20.5l-21.6 8.5zm11.5 23.6l10.1-10.3v-9.2l-12.9 12.9zm-12.2 12.6l11.5-11.8-2.8-6.5-11.9 12zm-13.1 13.3l12.4-12.6-3.2-6.3-12.4 12.4zm-13.3 13.5l12.6-12.8-3.3-6.5-12.5 12.6zm-14.4 14.7l13.6-13.9-3.3-6.7-13.7 13.8zm-16.2 16.6l15.5-15.9-3.4-6.8-15.6 15.6zm92.9-113.3c1.5 0 2.6-1.2 2.6-2.6 0-1.5-1.1-2.7-2.6-2.7h-12.6v5.3z"/>
			<path id="&lt;Path&gt;" class="s0" d="m531.3 344.3c-0.3 0.8-1.8 6.4-2.6 9.2-0.9 2.7-4.3 12.1-6.6 18.1-2.4 6-6.6 15.3-6.6 15.3h-10.8v-32.1q0 0 0.6-0.4c0.3-0.3 0.9-0.9 1.1-2.3 0.2-1.3-1.1-2.6-1.1-2.6 2-7.3 8.6-12.7 16.5-12.7 3.8 0 7.4 1.3 10.2 3.5 0 0-0.4 3.1-0.7 4z"/>
			<path id="&lt;Path&gt;" class="s0" d="m488.5 388.4c0 0 6.9-0.1 12 3.8 0 0-4.5-1.5-7.9-1.6-3.3-0.1-6.3 0.3-6.6 0.4-0.3 0.1 2.5-2.6 2.5-2.6z"/>
			<path id="&lt;Path&gt;" class="s0" d="m465.9 411.7c0 0 6.4-1 9.4-1.3 2.9-0.3 8.6-0.9 13.1 0.7 4.5 1.5 7.3 3.2 8.8 4.5 1.6 1.3-1.9-2.5-9.5-2.8-7.5-0.3-7.1 0.4-9.1 0.5-2 0.1-6.4 0.6-7.9 0.7-1.5 0.1-6.8 0.4-7 0.3-0.3 0 0.2-0.5 0.2-0.5z"/>
			<path id="&lt;Path&gt;" class="s0" d="m441.6 436.5c0 0 5.5-1.2 9.8-0.7 7.5 0.7 10.6 3.5 10.6 3.5 0 0-7.3-2.1-12.2-1.3-5 0.7-9 1.6-9.8 1.7-0.9 0-1.4 0-1.4 0z"/>
			<path id="&lt;Path&gt;" class="s0" d="m419.6 458.9c0 0 7.6-1.4 12-1 4.3 0.3 10.6 1.3 14.6 4.5 0 0-5.6-2.1-10.2-2.1-4.6 0.1-11.1 0.9-12.8 1.2-1.6 0.2-5.9 0.4-6.2 0.3-0.3-0.1 1.3-1.5 1.3-1.5z"/>
			<path id="&lt;Path&gt;" class="s0" d="m397.3 481.8c0 0 1.4-0.2 4.7 1 3.3 1.3 4.7 2.9 4.7 2.9 0 0-4.1-1.5-5.7-1.7-1.6-0.1-3.1-0.1-4.1-0.2-0.9-0.2-1.2-0.3-1.2-0.3l1-1.3z"/>
			<path id="&lt;Compound Path&gt;" fill-rule="evenodd" class="s0" d="m130.6 343.2l0.1-0.3q-0.8 0.3-1.6 0.3l-68.3-0.7v-1l68.3 0.7c2 0 3.5-1.6 3.5-3.6 0-2-1.5-3.5-3.4-3.5l-70.9-0.8v-1l70.9 0.8q0.5 0 1 0.1v-5.1l-72.1-1.4v-1l73.1 1.5v0.1l28.8 6.6v6.5c1.1 0.7 1.9 1.9 1.9 3.4 0.1 2.6-1.8 4.1-3.9 4.2h-0.1zm27.4 4.9c1.7-0.2 2.9-1.1 2.9-3.3 0-1.6-1.3-2.8-3.1-3.2l-25.4-6.1c0.8 0.9 1.2 2 1.2 3.2 0 1.5-0.7 2.9-1.9 3.7zm0.1-7.4q0.5 0.1 0.9 0.3v-5.2l-27.8-6.3v4.8zm74.6 91.9v-7.2l-4.8-2.9v7.1l-6.6-3.9v-7.1l-5.1-3.1v7l-6-3.7v-6.9l-4-2.4v6.9l-5.8-3.7v-6.7l-4.3-2.6v6.6l-5.7-3.4v-6.7l-4.1-2.3v6.7l-5-3.3v-6.5l-3.3-2v6.6l-5.1-3.1v-6.6l-3.5-2v6.4l-5.4-3.4v-6.3l-3.9-2.4v6.4l-4.8-3v-6.3l-4-2.3v6l-5.5-3.2v-6.1l-4.5-2.7v32.7h-56.2v-1h55.2v-33.4l6.5 3.8v6.1l3.5 2.1v-6l6 3.4v6.3l2.8 1.8v-6.4l5.8 3.7v6.2l3.5 2.2v-6.4l5.5 3.2v6.6l3.1 1.9v-6.5l5.3 3.1v6.6l3 2v-6.7l0.3 0.2v-38.2l2.8-6.4 0.9 0.4-2.5 5.6h77.8v1h-78v5.1h78.1v1h-78.1v32.1l4.8 2.8v6.6l1.6 1v-39.3h71.8v1h-70.8v12.2h9.6v1h-9.6v3.4h9.6v1h-9.6v21.3l1.1 0.6v-6.6l6.2 3.8v6.8l3.9 2.4v-6.9l6 3.7v6.8l4 2.5v-7l7.1 4.3v7.1l4.6 2.7v-7l6.8 4v7.2l5.1 3.1v-7.1l7 4.2v-14h1v15.7l-7-4.1v7z"/>
			<path id="&lt;Path&gt;" class="s0" d="m237 382.3c0-5.9 4.8-10.7 10.7-10.7 5.9 0 10.7 4.8 10.7 10.7v11.7h-21.4z"/>
			<path id="&lt;Path&gt;" class="s0" d="m221.3 418.6v-13.9l15.8-11.4 9.4 11.2h10v1h-9.7v9.4h-1v-9.4h-23.5v13.1z"/>
			<path id="&lt;Path&gt;" class="s0" d="m225.1 402.6l-3.3 2.4v13.1l-6.2-3.7v7.1l-4.9-3.3v-6.8l-5.1-2.9 0.1 6.9-1.9-1.1v-32c0-5.9 4.8-10.7 10.7-10.7 5.9 0 10.7 4.8 10.7 10.7z"/>
			<path id="&lt;Path&gt;" class="s0" d="m157.5 348.5h1v37.6h-1z"/>
			<path id="&lt;Path&gt;" class="s0" d="m158 377.8l0.9-0.4c0 0 0.9-1.5 1.4-2 0.5-0.6 1.8-2.3 2.5-3.1 0.7-0.9 1.6-1.9 2.5-2.7 0.9-0.7 2.8-2.3 3.5-3.1 0.8-0.9 1.8-1.2 2.7-2.1 1-0.9 2.4-1.1 3-1.7 0.7-0.6 2.6-4 3.8-5.5 1.2-1.5 4.8-3.9 6.7-4.7 1.9-0.8 3.5-0.5 3.5-0.5l-2.7 5.6-0.3 44.6-3.4-2-0.3-6.5-4.9-2.8-0.3 6-2.9-1.7-0.1-7.2-5.4-2.5-0.1 6-3.3-1.8v-6.7l-5.5-3.1-0.4 5.9-0.9-0.3z"/>
			<path id="&lt;Compound Path&gt;" fill-rule="evenodd" class="s0" d="m72.7 378.6v-1h12.1c1.5-0.1 2.6-1.3 2.6-2.8 0-1.5-1.1-2.7-2.7-2.7h-14.9v-1h14.9c2.1 0 3.7 1.7 3.7 3.7 0 2.1-1.6 3.7-3.6 3.8zm57.5 24v-24h-11.6c-2-0.1-3.6-1.7-3.6-3.8 0-2 1.6-3.7 3.7-3.7h11.5v-28.4h1v59.9zm-14.2-27.8c0 1.5 1.2 2.7 2.6 2.8h11.6v-5.5h-11.5c-1.6 0-2.7 1.2-2.7 2.7zm20.5 36.1h-45.1v-1h44.9l3.7-7.8 119.4 74.8-0.6 0.9-18.9-11.9-4.5 6.7 19 12.1-0.6 0.8zm28.9 17.2l3.7-6.5-13.5-8.5-3.8 6.4zm14.4 9.1l4.3-6.3-14.1-8.8-3.7 6.5zm16.5 10.6l4.4-6.5-15.8-9.8-4.3 6.3zm17.7 11.2l4.4-6.5-16.9-10.6-4.3 6.4zm20.5 13.1l4.6-6.7-19.8-12.4-4.5 6.5zm-83.5-53.1l3.7-6.4-14.3-9-3.2 6.7z"/>
			<path id="&lt;Path&gt;" class="s0" d="m116.4 372.4c-0.5 0.3-0.8 1.2-1 2.7-0.1 1.6 2.1 2.6 2.1 2.6v24.9h-31v-24.9c0 0-0.5 0.2 0-0.3 0.4-0.4 1.4-1.5 1.5-2.7 0.1-1.2-1.5-2.7-1.5-2.7 0.3-8.4 7.1-15.1 15.5-15.1 8.3 0 15.2 6.6 15.5 15 0 0-0.7 0.3-1.1 0.5z"/>
			<path id="&lt;Compound Path&gt;" class="s0" d="m118.1 310.3c0-1.2 0.5-2 0.5-2.7 0.2-1.3 1.6-3.8 2.8-6.4 1.2-2.6 2.9-5.2 4.2-6.7 1.4-1.4 3.2-2.7 5.2-3.7 1.9-1.1 5.1-3.5 6.6-4.6 1.4-1.1 1.3-1.6 2-3.2 0.8-1.6 3.2-6.6 4.6-8.1 1.4-1.5 6.1-4.7 8-6.3 1.9-1.5 2.6-2.3 4.2-6 1.6-3.6 4.6-11.3 6.2-13.6 1.5-2.4 5.1-5.5 6.8-6.4 1.6-0.7 7-3.8 9.3-6.3 1.1-1.2 1.3-2.1 1.3-2.5 0-0.3 0-0.4 0-0.4l0.9-0.4c0 0.1 0.1 0.3 0.1 0.8 0 0.7-0.3 1.8-1.5 3.1-2.6 2.8-8 5.8-9.6 6.6-1.5 0.8-5.2 3.9-6.5 6-1.4 2.1-4.5 9.9-6.1 13.6-1.6 3.6-2.5 4.7-4.5 6.3-1.9 1.6-6.7 4.9-7.9 6.2-1.1 1.2-3.7 6.3-4.4 7.8-0.6 1.4-0.6 2.4-2.3 3.6-1.5 1.1-4.7 3.5-6.7 4.6-1.9 1.1-3.7 2.3-5 3.6-1.2 1.3-2.9 3.9-4 6.4-1.3 2.6-2.6 5.3-2.7 6.1-0.1 1-0.5 1.7-0.5 2.6v0.5l-0.9 0.2zm-32.2 61.6v-25.1h32v24.8h-1v-18.7l-6.2 7.6-0.8-0.6 7-8.6v-3.5h-7.7l-2.7 10.9-1-0.2 2.7-10.7h-13l3.9 9.8-0.9 0.4-4.1-10.2h-7.2v2.8l8.6 8.3-0.6 0.7-8-7.6v19.9zm0 5.6h1v25.1h-1zm31 0h1v25.1h-1z"/>
			<path id="&lt;Path&gt;" class="s0" d="m192 255.3c0 0-1.5 0.5-2.2 0.6-0.8 0.1-2.9 0.1-4.6 0.4-1.8 0.3-5.2 2.5-6.4 3.7-1.3 1.3-2.9 3.8-4 4.9-1 1-1.3 0.6-1.9 0.8-0.6 0.2-2.2 1.8-2.6 2.2-0.5 0.4-4.1 4-5.2 5.7-1.2 1.8-2.9 4.8-3.2 5.8-0.3 1-0.7 0.7-0.7 0.7 0 0 1.1-3.2 2-4.8 0.8-1.7 2.5-4.1 3.8-5.6 1.2-1.6 4.2-4.5 5.1-5.2 0.8-0.8 1.7-1.4 3.2-3.4 1.6-2 4.3-4.5 6.2-5.3 1.9-0.8 3.9-0.7 6.2-0.7 2.4 0 4.6-0.5 4.6-0.5z"/>
			<path id="&lt;Path&gt;" class="s0" d="m200.6 260.8l0.8 0.8c0 0-0.5 0.1-1 0.2-0.6 0.1-1.4 0.3-2.3 0.8-0.9 0.4-1.5 1.2-2.9 1.9-1.3 0.6-3.2 0.9-3.4 0.9l-0.6 0.7c0 0-0.5 0.2-0.8 0.2-0.3 0-0.5 0.8-1.2 1.3-0.7 0.4-1.2 1.1-1.4 1.5-0.2 0.4-0.7 0.6-1.1 0.5-0.4 0 0.4-0.6 0.4-0.6 0 0 0.8-0.9 1.3-1.4 0.6-0.6 0.7-1 1-1.2 0.3-0.3 0.5-0.3 0.9-0.6 0.3-0.3 0.7-0.8 1.2-1.1 0.4-0.3 2-1.2 3-1.8 1.1-0.5 2.6-1.8 3.3-2.2 0.8-0.4 2.3-0.4 2.3-0.4z"/>
			<path id="&lt;Path&gt;" class="s0" d="m215.8 280.3l0.3 0.6c0 0-1 0.3-1.3 0.4-0.3 0.1-0.8 0.2-1.2 0.3-0.4 0.2-1.5 1-1.9 1.3-0.3 0.3-1.3 1.1-2 1.5-0.7 0.4-0.9 0.2-0.9 0.2 0 0-0.9 0.5-1.4 0.7-0.5 0.3-0.4 0.2-1.1 1-0.6 0.7-1 0.8-1.3 1.4-0.4 0.6-1.1 1.2-1.6 1.5-0.4 0.2 0-0.6 0-0.6l0.8-0.7c0 0 0.1-0.3 0.6-0.8 0.4-0.5 0.5-0.6 1-0.9 0.5-0.4 0.1-0.5 0.6-1 0.4-0.5 1.1-1.1 1.6-1.5 0.4-0.4 1.4-0.9 1.8-1.3 0.5-0.3 1.5-1.4 2-1.7 0.4-0.4 1.3-0.4 1.5-0.6 0.2-0.1 0.8-0.2 1.2-0.3 0.3-0.1 0.7-0.2 0.7-0.2z"/>
			<path id="&lt;Path&gt;" class="s0" d="m207.3 272.7l-0.9 0.2c0 0-1.4 0-1.7 0-0.3 0-1.6 0.5-1.9 0.5-0.3 0-0.8 0.1-1.6 0.5-0.7 0.4-1 0.5-1.8 1-0.8 0.6-1.4 0.6-1.9 1.1-0.6 0.5-0.7 0.6-1 0.9-0.3 0.2-1.2 0.7-1.2 0.7 0 0-0.5 0.6-0.8 0.9-0.3 0.2-0.6 0.6-0.7 0.9-0.1 0.4-1.5 1.8-1.7 2.2-0.2 0.5-0.6 0.3-0.9 0.3-0.3 0.1-0.9 0.4-1.3 0.5-0.4 0.1-1.4 0.6-1.8 1.1-0.5 0.5-1.2 1.8-1.7 2.3-0.6 0.5-1.3 1.8-1.5 2.7-0.2 0.9-1 2.1-1.2 3-0.2 1-0.8 0.4-1.2 0.8-0.5 0.4-1.2 0.9-1.4 1.3-0.2 0.4-0.8 1.1-1.4 1.7-0.5 0.5-1.2 1.7-1.5 2.4-0.3 0.6-0.7 2.2-0.7 3.2-0.1 1.1 0 1.8-0.3 2.9-0.2 1.2-0.7 1.1-1.3 2.2-0.6 1.1-1 1.4-1.3 2.4-0.4 1.1-0.6 2.3-1 3.4-0.3 1.2-0.7 2.7-0.9 3.1-0.1 0.5-0.1 2.2-0.1 2.2 0 0-0.1-1.4-0.1-1.7-0.1-0.3-0.2-1.2 0.2-1.9 0.4-0.6 0.2-1.4 0.2-1.4 0 0 0.3-0.9 0.2-1.4 0-0.4 0.1-1.2 0.5-1.8 0.4-0.6 0.2-0.9 0.3-1.5 0.1-0.6 0.8-2.2 1.1-3 0.4-0.7 0.5-1.2 0.5-1.9 0-0.7 0.1-3.8 0.2-4.8 0.1-1.1 0.9-2.6 1.6-3.6 0.7-1.1 2.1-2.3 2.7-2.7 0.7-0.4 2.1-1.4 2.6-1.8 0.4-0.4 0.2-0.6 0.4-1.4 0.2-0.8 0.7-1.4 1-2.1 0.3-0.7 1.1-1.9 1.7-3 0.6-1.1 1.7-1.8 2-2 0.3-0.1 1.6-0.6 2.4-0.8 0.9-0.2 1.7-0.6 1.9-0.9 0.3-0.2 0.8-0.7 1.3-1.3 0.5-0.6 0.5-0.8 1.1-1.1 0.7-0.3 1.1-0.6 1.7-1.2 0.6-0.5 1.5-0.9 2.1-1.1 0.7-0.3 0.9-0.5 1.4-0.7 0.5-0.2 1.6-0.4 2.4-0.8 0.8-0.5 1.6-0.5 2.4-0.7 0.8-0.2 2.3-0.2 2.7-0.2 0.4 0 0.2 0.4 0.2 0.4z"/>
			<path id="&lt;Path&gt;" class="s0" d="m139.1 284.8c0 0-0.3 1 0.3 1.1 0.7 0.1 1.4-0.6 1.9-0.4 0.5 0.1 2-0.4 2.4-0.4 0.3-0.1 1-0.3 1.3-0.3 0.2 0 1.9-0.5 1.8-0.2-0.1 0.2-1.3 0.9-2.2 1.1-0.9 0.2-1.9 0.4-2.8 0.5-0.9 0.1-1.6 0.1-2.2 0.5-0.6 0.4-2.2 1-2.8 1.5-0.6 0.4-1.4 0.8-2.4 1-1.1 0.3-2.5 1.2-2.9 1.7-0.4 0.5-0.3 0.8-1.4 1.9-1 1-3.2 2.4-4 3.1-0.8 0.6-2.1 2.1-2.6 2.6-0.4 0.5 2-3.1 2-3.1 0 0 3.8-3.5 4.4-3.7 0.6-0.1 3-1.6 3-1.6 0 0 3.3-2.2 3.8-2.7 0.6-0.6 2.1-1.6 2.1-1.6z"/>
			<path id="&lt;Path&gt;" class="s0" d="m172.3 285.7c0 0 0 0.3-0.3 0.4-0.4 0.2-0.9 0.3-1.4 0.3-0.5 0.1-0.5 0.2-1 0.4-0.4 0.2-1.1 0.3-1.3 0.6-0.1 0.3-1.2 0.7-1.6 0.8-0.4 0.2-1.3 0.7-1.7 1.2-0.3 0.4-0.9 0.7-1.5 1.1-0.5 0.3-0.9 0.5-1.4 1-0.5 0.5-1.1 0.9-1.7 1.3-0.6 0.4-1.5 0.5-1.7 0.5-0.3 0-2 1.2-2.4 1.5-0.4 0.3-1.3 1.2-1.7 1.7-0.3 0.5-0.2 0.6-0.8 1.1-0.6 0.5-1.1 1.1-1.6 1.8-0.5 0.7-1.4 1.6-2.1 2.4-0.7 0.7-1.3 0.4-2 0.6-0.6 0.2-1.7 0.3-2.3 0.8-0.7 0.4-1.6 0.5-2.2 0.7-0.6 0.2-2 1.2-2.8 1.7-0.8 0.5-1.1 1.4-1.7 1.9-0.7 0.4-1 0.7-1.4 0.9-0.4 0.3-1.1 1.9-1.6 2.5-0.6 0.6-1.1 1.4-1.4 1.9-0.2 0.5-0.9 1.5-1.4 2.1-0.5 0.6-0.9 1.4-1.1 1.8-0.2 0.5-0.2 0.5-0.3 0.3l0.4-1.2c0.2-0.2 0.3-0.5 0.5-0.9 0.2-0.3 0.4-0.6 0.5-1.1 0-0.4 0.1-0.4 0.4-1.1 0.3-0.7 0.7-1 1.3-2 0.7-1.1 0.7-1.7 1.6-2.7 0.8-1 1.3-1.3 1.8-1.8 0.6-0.5 0.7-0.6 1.5-1.3 0.8-0.8 0.4-0.5 0.9-0.8 0.5-0.4 1.1-0.8 1.5-1.2 0.5-0.5 1.3-0.8 2.1-1.4 0.8-0.6 2.1-1.2 2.6-1.6 0.6-0.3 1.7-0.4 2.1-0.8 0.5-0.5 1.3-0.8 1.8-1.4 0.4-0.6 0.5-0.7 1.1-1.3 0.6-0.6 0.9-0.5 1.2-1 0.2-0.5 0.7-1.2 1.5-1.7 0.9-0.6 1-0.5 1.4-0.9 0.4-0.5 1.2-0.7 1.6-0.8 0.5-0.1 1.4-0.4 1.8-0.9 0.5-0.6 0.9-0.2 1.2-0.5 0.4-0.3 1.2-0.3 1.8-0.7 0.7-0.3 0.6-0.2 1.2-0.3 0.5-0.2 0.6-0.4 1.1-0.8 0.4-0.5 1.1-0.9 1.9-1 0.8 0 1.2-0.5 1.6-0.9 0.3-0.5 0.7-0.4 1.2-0.5 0.5-0.2 0.5-0.3 1.1-0.6 0.5-0.2 1.5-0.2 1.5-0.2z"/>
			<path id="&lt;Path&gt;" class="s0" d="m129.1 303.2l-0.3 0.5c0 0-0.3 0.3-0.7 0.6-0.4 0.3-0.5 0.2-1.3 0.6-0.8 0.4-0.4 0.5-0.9 1-0.4 0.4-1.6 1.1-2.2 1.6-0.5 0.5-1.5 1.6-2.2 2.4-0.7 0.8-1.1 1.5-1.7 2.5-0.6 1-1.5 2.5-1.8 3.6-0.4 1.1-0.8 2.1-0.9 3.1-0.2 0.9-0.6 3-0.8 3.8-0.2 0.9-0.3 2.8-0.3 3.9 0 1.2 0.4 1.5 0.4 1.5l-2.1-0.2 0.5-0.9 0.2-1.3c0.1-0.2 0.1-1.3 0.1-2.5 0.1-1.1 0-1.4 0.2-2.3 0.3-0.9 0.4-1.8 0.5-3.1 0.1-1.4 0.8-2.6 1.3-4 0.5-1.4 0.7-1 1-2 0.3-1.1-0.4-0.8-0.5-1.3-0.1-0.4 0.8-1.4 0.8-1.4 0 0 0.8-2.4 1.2-3 0.4-0.6 1.2-3 1.2-3 0 0 0.1 1.1-0.1 1.9-0.2 0.8-0.4 1.5-0.8 2.5-0.3 1.1-0.7 1.3-0.6 1.9 0.1 0.7 0.4 0.2 0.7 0 0.4-0.2 0.9-1.2 1.8-2 0.8-0.8 2.2-1.4 4.5-2.8 2.3-1.4 2.8-2 2.8-2z"/>
			<path id="&lt;Path&gt;" class="s0" d="m159.7 316.5c0 0-0.6 0.5-0.9 0.8-0.4 0.3-1.2 0.4-1.9 0.7-0.7 0.4-0.4 0.1-1.5 1.3-1.1 1.3-0.8 1.6-1.1 2.1-0.3 0.5-1.3 1.1-1.6 1.4-0.4 0.3-1 1.4-1.3 2.1-0.2 0.7-0.9 1.9-1.3 2.3-0.5 0.5-0.7 1-1.2 2-0.5 0.9-0.7 1.5-0.8 2.5-0.1 1 0.7 1.3 0.7 1.3l-3.3-1.1c0 0 0-0.2 0.3-0.5 0.2-0.3 0.3-1.3 0.6-2 0.2-0.7 0.1-0.7 1.1-1.6 0.9-0.9 0-0.5 0.4-1.1 0.4-0.6 0.9-1.4 1.1-1.7 0.3-0.3 0.9-1.3 1.3-1.6 0.4-0.3 0.1-0.3 0.6-1.2 0.5-0.9 1.7-2 2.3-2.4 0.6-0.5 2.1-1.5 2.5-2.1 0.4-0.5 1.7-0.7 1.7-0.7 0 0 0.7-0.4 1.3-0.6 0.7-0.1 1.1-0.3 1.1-0.3z"/>
			<path id="&lt;Path&gt;" class="s0" d="m182.8 323.5c-0.3 0.5-0.2 0.6-0.6 1.9-0.4 1.3 0 0.5-0.9 2.2-0.9 1.8-0.6 1-1.4 1.8-0.7 0.9-0.2 0.7-1.3 1.6-1.1 0.9-0.8 1.7-1.7 3-0.8 1.3-1.4 3-1.7 4-0.3 1-0.5 2.6-0.9 3.5-0.4 1-0.8 2.4-1.1 2.9-0.2 0.4-1 1.2-1.6 1.7-0.7 0.6-1.1 1.4-1.9 2.1-0.7 0.8-1.3 1.1-2.4 2.6-1.1 1.6-2.1 2-2.6 2.8-0.6 0.8-0.1 1.1-1.7 2.4-1.5 1.3-1.4 2.1-2.3 3.7-0.9 1.6-0.5 1.3-0.5 1.3 0 0 0-0.8 0-1.7 0.1-0.8 0.1-0.3 0.4-0.9 0.4-0.7 0.1-0.8 0.2-1.2 0.1-0.3 0.6-0.9 0.9-1.3 0.3-0.5 0.5-0.7 0.8-1.8 0.3-1.1 1.5-2.4 2.1-3.4 0.6-1 1.4-1.6 1.9-2.2 0.5-0.5 1-1.5 2-2.2 1-0.8 1.8-2 2.3-3 0.6-1 1-1.4 1.3-2.8 0.2-1.4 0.9-2 1.1-3.2 0.2-1.2 0.3-1.4 1-2.7 0.8-1.4 0.9-1.7 1.5-2.5 0.5-0.8 1-0.7 1.3-1.4 0.3-0.6 0.9-0.7 1.2-1 0.3-0.2 1.3-1.1 1.6-1.8 0.4-0.7 1.7-2.2 2-2.9 0.3-0.7 0.3-1.2 0.7-2 0.4-0.7 0.7-1.1 0.7-1.1 0 0-0.2 1.1-0.4 1.6z"/>
			<path id="&lt;Path&gt;" class="s0" d="m257.5 495.4c0 0 4.9 2.1 10.7 1.9 0 0 4.7 0.1 9.8-1.3 5.1-1.3 9.5-1.9 12.4-1.9 3 0 8 0.2 14.1 3.4 0 0-4-1.4-7.8-1.2-3.8 0.2-10.6 1-15.4 2.1-4.8 1.1-8.8 1.8-14.4 0.8-5.5-1-9.4-3.8-9.4-3.8z"/>
			<path id="&lt;Path&gt;" class="s0" d="m194.7 493.7c0 0 5 2.1 10.7 1.9 0 0 4.8 0.1 9.9-1.3 5.1-1.3 9.4-1.9 12.4-1.9 3 0 8 0.2 14 3.4 0 0-3.9-1.4-7.7-1.2-3.9 0.2-10.6 1-15.4 2.1-4.9 1.1-8.9 1.8-14.4 0.8-5.5-1-9.5-3.8-9.5-3.8z"/>
			<path id="&lt;Path&gt;" class="s0" d="m161.5 481.5c0 0 5 2.1 10.7 1.8 0 0 4.7 0.1 9.8-1.2 5.1-1.4 9.5-2 12.4-2 3 0 8 0.3 14.1 3.5 0 0-3.9-1.4-7.8-1.3-3.8 0.2-10.6 1-15.4 2.1-4.8 1.1-8.8 1.9-14.3 0.9-5.6-1-9.5-3.8-9.5-3.8z"/>
			<path id="&lt;Path&gt;" class="s0" d="m165.4 457.3c0 0 5 2.1 10.7 1.8 0 0 4.8 0.2 9.9-1.2 5.1-1.3 9.4-1.9 12.4-1.9 3 0 7.9 0.2 14 3.4 0 0-3.9-1.4-7.8-1.3-3.8 0.2-10.5 1-15.3 2.1-4.9 1.1-8.9 1.9-14.4 0.9-5.5-1-9.5-3.8-9.5-3.8z"/>
			<path id="&lt;Path&gt;" class="s0" d="m134.8 445.9c0 0 5 2.1 10.7 1.8 0 0 4.7 0.1 9.9-1.2 5.1-1.4 9.4-2 12.4-2 3 0 7.9 0.3 14 3.5 0 0-3.9-1.5-7.8-1.3-3.8 0.2-10.6 1-15.4 2.1-4.8 1.1-8.8 1.9-14.3 0.9-5.6-1-9.5-3.8-9.5-3.8z"/>
			<path id="&lt;Path&gt;" class="s0" d="m231 469.9c-3.3 0.4-7.1 0.9-10.1 1.6-4.8 1.1-8.8 1.9-14.3 0.9-5.6-1-9.5-3.8-9.5-3.8 0 0 5 2.1 10.7 1.8 0 0 4.7 0.1 9.8-1.2 3.6-1 6.8-1.5 9.4-1.8z"/>
			<path id="&lt;Path&gt;" class="s0" d="m253.7 484.2c-3.4 0.4 0.8-0.2-2.2 0.4-4.8 1.1-8.9 1.9-14.4 0.9-5.5-1-9.5-3.8-9.5-3.8 0 0 5 2.1 10.7 1.8 0 0 4.8 0.2 9.9-1.2 3.6-0.9-0.8-0.4 1.9-0.7z"/>
			<path id="&lt;Path&gt;" class="s0" d="m154 421.2c-3.3 0.4-1.5 0.2-4.6 0.9-4.8 1.1-8.8 1.9-14.3 0.9-5.6-1-9.5-3.8-9.5-3.8 0 0 5 2.1 10.7 1.8 0 0 4.7 0.1 9.9-1.2 3.5-1 1.4-0.8 4-1z"/>
			<path id="&lt;Path&gt;" class="s0" d="m178.2 436.6c-3.3 0.4 2.5-0.6-0.5 0.1-4.8 1.1-8.8 1.8-14.3 0.8-5.6-0.9-9.5-3.8-9.5-3.8 0 0 5 2.1 10.7 1.9 0 0 4.7 0.1 9.8-1.2 3.6-1-2 0.2 0.6-0.1z"/>
			<path id="&lt;Path&gt;" class="s0" d="m185.1 201.5l2.5 0.6v7.6l-2.5-0.8z"/>
			<path id="&lt;Path&gt;" class="s0" d="m185.1 191.6l2.5 0.6v7.5l-2.5-0.8z"/>
			<path id="&lt;Compound Path&gt;" fill-rule="evenodd" class="s0" d="m266.1 133.9l0.3-0.2c4.8-2.7 12.8-4.6 21.9-4.6 9.2 0 17.4 1.8 22.2 4.5l0.3 0.2-0.2 18.7-0.7-0.4c-4.9-2.3-12.7-3.9-21.4-3.9-8.9 0-16.8 1.6-21.7 4l-0.7 0.4zm27.9-1.7v-1.8q-1.5-0.1-3.1-0.2v1.8q1.6 0.1 3.1 0.2zm-26.9 18.9c5.1-2.4 12.7-3.8 21.4-3.9 8.5 0.1 16 1.5 21.1 3.8l0.2-16.1-0.2-0.1c-0.5-0.3-0.9-0.5-1.4-0.7v3.1l-0.7-0.4c-0.8-0.4-1.7-0.8-2.6-1.1l-0.3-0.1v-2.9q-0.9-0.3-2-0.6l0.1 2.8-0.7-0.2q-1.8-0.5-3.9-0.9l-0.4-0.1v-2.5c-0.9-0.2-1.8-0.3-2.7-0.4v2.6l-0.6-0.1c-1.3-0.2-2.6-0.3-4-0.3l-0.5-0.1v-2.5q-0.9 0-1.7 0-0.5 0-1 0v2.5h-0.5q-2 0-4 0.2h-0.5v-2.4q-1.3 0.1-2.5 0.3v2.4l-0.4 0.1q-1.7 0.2-3.3 0.6l-0.6 0.1v-2.5q-1.2 0.3-2.2 0.6l0.2 2.4-1.7 0.6c-1.1 0.3-1 0.3-1.9 0.7l-0.7 0.3v-2.6q-1.1 0.4-2 0.9zm34.6-17.4l-0.1-2.1q-1.4-0.3-2.9-0.6v2q1.6 0.3 3 0.7zm-31.6 1.1c0.4-0.1 0.6-0.2 1.3-0.4l1-0.3-0.2-1.6q-1.1 0.3-2.1 0.7zm37.1 0.8v-2.4q-0.7-0.3-1.6-0.6v2.3q0.9 0.3 1.6 0.7zm-30.8-2.6q1.1-0.2 2.3-0.4v-1.7q-1.2 0.2-2.3 0.4zm6.8-0.9q1.5-0.1 3-0.1v-1.8q-1.5 0.1-3 0.2zm-57.4 248.8h10.1v1h-10.1zm33.3 0h6.2v0.9h-6.2zm-33.3 4.4h10.1v1h-10.1zm33.3 0h5.4v1h-5.4z"/>
			<path id="&lt;Path&gt;" class="s0" d="m107 435.7c0 0 4.8 0.1 9.9-1.2 5.1-1.4 9.4-2 12.4-2 3 0 8 0.2 14.1 3.4 0 0-4-1.4-7.8-1.2-3.9 0.2-10.6 1-15.4 2.1-3.9 0.9-7.2 1.5-11.3 1.2"/>
			<path id="&lt;Path&gt;" class="s0" d="m128.5 457c3.6-0.8 6.7-1.1 8.9-1.1 3 0 8 0.2 14.1 3.4 0 0-3.9-1.4-7.8-1.2-3.2 0.2-8.6 0.8-13.1 1.6"/>
			<path id="&lt;Path&gt;" class="s0" d="m145.2 470.9c0 0 4.7 0.2 9.9-1.2 5.1-1.4 9.4-2 12.4-2 3 0 7.9 0.3 14 3.5 0 0-3.9-1.5-7.8-1.3-3.8 0.2-10.5 1-15.4 2.1-4 1-7.5 1.6-11.9 1.2"/>
			<path id="&lt;Path&gt;" class="s0" d="m95.2 417.4c2.5-0.5 4.7-0.7 6.5-0.7 3 0 8 0.3 14 3.5 0 0-3.9-1.5-7.8-1.3-3 0.2-7.8 0.7-12.1 1.5"/>
			<path id="&lt;Path&gt;" class="s0" d="m122.7 453.6c-44.4-44.7-71.9-106.5-71.9-174.8 0-68.3 27.5-130.1 71.9-174.8 44.3-44.8 105.7-72.4 173.4-72.4v1.3 1.3c-67 0-127.6 27.4-171.5 71.7-43.9 44.2-71.1 105.4-71.1 172.9 0 67.6 27.2 128.7 71.1 173 43.9 44.2 104.5 71.6 171.5 71.6 67 0 127.6-27.4 171.5-71.6 43.9-44.3 71-105.4 71-173 0-67.5-27.1-128.7-71-172.9-43.9-44.3-104.5-71.7-171.5-71.7v-1.3-1.3c67.7 0 129 27.6 173.4 72.4 44.4 44.7 71.8 106.5 71.8 174.8 0 68.3-27.4 130.1-71.8 174.8-44.4 44.8-105.7 72.4-173.4 72.4-67.7 0-129.1-27.6-173.4-72.4z"/>
			<path id="&lt;Path&gt;" class="s0" d="m122.7 453.6c-44.4-44.7-71.9-106.5-71.9-174.8 0-68.3 27.5-130.1 71.9-174.8 44.3-44.8 105.7-72.4 173.4-72.4v1.3 1.3c-67 0-127.6 27.4-171.5 71.7-43.9 44.2-71.1 105.4-71.1 172.9 0 67.6 27.2 128.7 71.1 173 43.9 44.2 104.5 71.6 171.5 71.6 67 0 127.6-27.4 171.5-71.6 43.9-44.3 71-105.4 71-173 0-67.5-27.1-128.7-71-172.9-43.9-44.3-104.5-71.7-171.5-71.7v-1.3-1.3c67.7 0 129 27.6 173.4 72.4 44.4 44.7 71.8 106.5 71.8 174.8 0 68.3-27.4 130.1-71.8 174.8-44.4 44.8-105.7 72.4-173.4 72.4-67.7 0-129.1-27.6-173.4-72.4z"/>
			<path id="&lt;Path&gt;" class="s0" d="m122.1 454.2c-44.6-44.9-72.1-106.9-72.1-175.4 0-68.5 27.5-130.5 72.1-175.4 44.5-44.9 106-72.7 174-72.7h0.8v0.9 1.3 2.2h-0.8c-66.8 0-127.2 27.2-170.9 71.3-43.8 44.2-70.9 105.1-70.9 172.4 0 67.3 27.1 128.2 70.9 172.4 43.7 44.1 104.1 71.3 170.9 71.3 66.7 0 127.1-27.2 170.9-71.3 43.7-44.2 70.8-105.1 70.8-172.4 0-67.3-27.1-128.2-70.8-172.4-43.8-44.1-104.2-71.3-170.9-71.3h-0.9v-0.9-1.3-2.2h0.9c67.9 0 129.5 27.8 174 72.7 44.5 44.9 72 106.9 72 175.4 0 68.5-27.5 130.5-72 175.4-44.5 44.9-106.1 72.7-174 72.7-68 0-129.5-27.8-174-72.7l0.6-0.6 0.6-0.6c44.2 44.6 105.3 72.2 172.8 72.2 67.5 0 128.6-27.6 172.8-72.2 44.2-44.6 71.6-106.2 71.6-174.2 0-68-27.4-129.6-71.6-174.2-44.2-44.6-105.3-72.2-172.8-72.2v-0.8h0.8v1.3 1.3h-0.8v-0.8c67.2 0 128 27.5 172.1 71.9 44 44.4 71.3 105.7 71.3 173.5 0 67.8-27.3 129.1-71.3 173.5-44.1 44.5-104.9 71.9-172.1 71.9-67.2 0-128.1-27.4-172.1-71.9-44.1-44.4-71.3-105.7-71.3-173.5 0-67.8 27.2-129.1 71.3-173.5 44-44.4 104.9-71.9 172.1-71.9v0.8h-0.9v-1.3-1.3h0.9v0.8c-67.5 0-128.6 27.6-172.8 72.2-44.3 44.6-71.6 106.2-71.6 174.2 0 68 27.3 129.6 71.6 174.2l-0.6 0.6z"/>
			<path id="&lt;Path&gt;" class="s0" d="m62 306.2h-1.4q0-4.2 0-6.2-0.1-2-0.4-6h1.4l0.1 1.5q0.1 2 0.9 2.3 0.8 0.4 7.3 0.2l8.8-0.4q4.9-0.1 6.7-0.7 1.9-0.5 3.1-2.6 1.3-2.1 1.2-5.5-0.2-3.5-1.6-5.9-1.1-1.6-3.1-2.3-2.1-0.7-7.8-0.5l-8.4 0.3q-5.9 0.2-6.8 0.7-0.8 0.6-0.7 2.7v1.1l-1.4 0.1q0-4.3 0-5.5-0.1-1.9-0.3-4.7h1.4v1.4q0.1 1.6 1.1 2.1 0.9 0.4 6.7 0.2l8.4-0.3q5.8-0.2 7.8 0.3 2 0.4 3.7 1.8 1.7 1.3 2.7 3.6 1 2.3 1.1 5.5 0.1 3.2-0.6 5.7-0.8 2.5-2 3.8-1.2 1.2-2.9 1.9-1.8 0.6-6.1 0.7l-4.3 0.1-6.8 0.3q-6.4 0.2-7.1 0.6-0.8 0.3-0.7 2.2z"/>
			<path id="&lt;Path&gt;" class="s0" d="m62 306.2h-1.4q0-4.2 0-6.2-0.1-2-0.4-6h1.4l0.1 1.5q0.1 2 0.9 2.3 0.8 0.4 7.3 0.2l8.8-0.4q4.9-0.1 6.7-0.7 1.9-0.5 3.1-2.6 1.3-2.1 1.2-5.5-0.2-3.5-1.6-5.9-1.1-1.6-3.1-2.3-2.1-0.7-7.8-0.5l-8.4 0.3q-5.9 0.2-6.8 0.7-0.8 0.6-0.7 2.7v1.1l-1.4 0.1q0-4.3 0-5.5-0.1-1.9-0.3-4.7h1.4v1.4q0.1 1.6 1.1 2.1 0.9 0.4 6.7 0.2l8.4-0.3q5.8-0.2 7.8 0.3 2 0.4 3.7 1.8 1.7 1.3 2.7 3.6 1 2.3 1.1 5.5 0.1 3.2-0.6 5.7-0.8 2.5-2 3.8-1.2 1.2-2.9 1.9-1.8 0.6-6.1 0.7l-4.3 0.1-6.8 0.3q-6.4 0.2-7.1 0.6-0.8 0.3-0.7 2.2z"/>
			<path id="&lt;Path&gt;" class="s0" d="m65.1 264.9l15.5 2q5.2 0.6 7.3 0.7 1.6 0 2-0.2 0.4-0.4 0.8-2l0.2-1.3 1.4 0.2q-0.4 2.2-0.6 4.1-0.2 1.2-0.5 5.8l-1.5-0.2 0.2-1.5q0.2-1.4-0.2-1.8-0.3-0.5-1.5-0.7-2.4-0.6-6.6-1.1l-11.1-1.4q-3.2-0.4-6.2-0.7-1.3-0.1-1.8 0.1-0.5 0.2-1 0.7-0.4 0.5-0.6 1.5l-0.1 1.3-1.4-0.2q0.5-2.6 0.6-4 0.2-1.5 0.3-3.3 2.9-1.7 5.7-3.1 2.8-1.5 5.6-3.2l10.2-5.8q5.5-3.2 7.7-4.7l-14.3-1.8q-9-1.1-9.9-0.9-0.9 0.2-1.4 2.3l-0.3 1.5-1.4-0.2q0.6-3.3 0.8-5.1 0.2-2 0.4-5l1.4 0.2-0.2 1.6q-0.2 1.9 1.1 2.3 0.9 0.3 9.8 1.4l10.1 1.3q4 0.5 9.7 0.9-0.8 2.7-1.1 3.2-0.2 0.4-0.8 0.7-3 2-6.6 4.1z"/>
			<path id="&lt;Path&gt;" class="s0" d="m65.1 264.9l15.5 2q5.2 0.6 7.3 0.7 1.6 0 2-0.2 0.4-0.4 0.8-2l0.2-1.3 1.4 0.2q-0.4 2.2-0.6 4.1-0.2 1.2-0.5 5.8l-1.5-0.2 0.2-1.5q0.2-1.4-0.2-1.8-0.3-0.5-1.5-0.7-2.4-0.6-6.6-1.1l-11.1-1.4q-3.2-0.4-6.2-0.7-1.3-0.1-1.8 0.1-0.5 0.2-1 0.7-0.4 0.5-0.6 1.5l-0.1 1.3-1.4-0.2q0.5-2.6 0.6-4 0.2-1.5 0.3-3.3 2.9-1.7 5.7-3.1 2.8-1.5 5.6-3.2l10.2-5.8q5.5-3.2 7.7-4.7l-14.3-1.8q-9-1.1-9.9-0.9-0.9 0.2-1.4 2.3l-0.3 1.5-1.4-0.2q0.6-3.3 0.8-5.1 0.2-2 0.4-5l1.4 0.2-0.2 1.6q-0.2 1.9 1.1 2.3 0.9 0.3 9.8 1.4l10.1 1.3q4 0.5 9.7 0.9-0.8 2.7-1.1 3.2-0.2 0.4-0.8 0.7-3 2-6.6 4.1z"/>
			<path id="&lt;Path&gt;" class="s0" d="m94.1 239.9l0.3-1.3q0.4-1.9-0.5-2.5-0.9-0.6-9.4-2.4l-7.5-1.6q-8.8-1.9-9.8-1.8-0.9 0.1-1.3 1.8l-0.3 1.6-1.4-0.3q0.9-3.3 1.6-6.6 0.5-2.8 0.8-5l1.4 0.3-0.3 1.5q-0.3 1.5 0 1.9 0.3 0.5 1.8 0.9 2.3 0.6 8.4 1.9l7.6 1.6q8.5 1.9 9.5 1.7 0.9-0.2 1.3-2l0.3-1.4 1.3 0.3q-0.6 2.5-1.2 5.4-0.8 3.5-1.2 6.3z"/>
			<path id="&lt;Path&gt;" class="s0" d="m94.1 239.9l0.3-1.3q0.4-1.9-0.5-2.5-0.9-0.6-9.4-2.4l-7.5-1.6q-8.8-1.9-9.8-1.8-0.9 0.1-1.3 1.8l-0.3 1.6-1.4-0.3q0.9-3.3 1.6-6.6 0.5-2.8 0.8-5l1.4 0.3-0.3 1.5q-0.3 1.5 0 1.9 0.3 0.5 1.8 0.9 2.3 0.6 8.4 1.9l7.6 1.6q8.5 1.9 9.5 1.7 0.9-0.2 1.3-2l0.3-1.4 1.3 0.3q-0.6 2.5-1.2 5.4-0.8 3.5-1.2 6.3z"/>
			<path id="&lt;Path&gt;" class="s0" d="m102.3 215.4q-3.1-0.1-5.9 0l-21.5 0.8q-4.6 0.1-5.1 0.2-0.4 0.2-0.9 1.6l-0.2 0.8-1.4-0.4q1.2-3.1 1.8-5.2 0.8-2.3 1.7-5.6l1.5 0.5-0.6 2q-0.4 1-0.2 1.4 0.1 0.3 0.5 0.5l0.6 0.1 8.2-0.2 16.4-0.5-12.3-9.8q-6.4-5-7.6-5.4-1-0.3-1.4 0.8l-0.3 0.7-0.7 1.7-1.4-0.5q1-2.5 1.6-4.2 0.5-1.8 1.3-4.6l1.3 0.5-0.3 0.8q-0.3 0.9 0.1 1.5 0.3 0.6 2.9 2.7l15.5 12.4q4.3 3.5 7.1 5.3z"/>
			<path id="&lt;Path&gt;" class="s0" d="m102.3 215.4q-3.1-0.1-5.9 0l-21.5 0.8q-4.6 0.1-5.1 0.2-0.4 0.2-0.9 1.6l-0.2 0.8-1.4-0.4q1.2-3.1 1.8-5.2 0.8-2.3 1.7-5.6l1.5 0.5-0.6 2q-0.4 1-0.2 1.4 0.1 0.3 0.5 0.5l0.6 0.1 8.2-0.2 16.4-0.5-12.3-9.8q-6.4-5-7.6-5.4-1-0.3-1.4 0.8l-0.3 0.7-0.7 1.7-1.4-0.5q1-2.5 1.6-4.2 0.5-1.8 1.3-4.6l1.3 0.5-0.3 0.8q-0.3 0.9 0.1 1.5 0.3 0.6 2.9 2.7l15.5 12.4q4.3 3.5 7.1 5.3z"/>
			<path id="&lt;Path&gt;" class="s0" d="m96.2 187.6l5 2.4 2.9 1.3q2.6 1.3 3.9 1.8 1.5-2.6 2.9-5.8 1-2.1 1.5-3.6 0.3-1 0.3-2.2-1.5-1.3-4-3.1l0.6-1.2q4.2 2.6 5.7 3.3l0.9 0.4q-0.8 2.3-1.7 4.3l-1.4 3q-2.4 4.8-3.5 7.1-1 2.2-2.5 5.9l-1.3-0.6 0.3-0.6q0.7-1.6 0.6-2.2-0.2-0.6-1.4-1.3-1.2-0.8-5.6-2.9l-11.2-5.3q-2.8-1.3-4.6-2-1.8-0.7-2.2-0.7-0.4 0-0.7 0.2-0.3 0.1-1.1 1.4l-0.8 1.4-1.2-0.6 0.9-2 1-2q0.8-1.6 1.2-2.5l3.2-7.3 1.6-3.4q0.8-1.8 1.8-3.5 2 1.9 5.9 3.8l-0.6 1.2q-2.3-1-3.9-1.5-1.9 1.8-3.4 5-1.2 2.6-2.2 5.5 1.9 0.9 3.8 1.9l3.1 1.5 4.2 2q0.9-1.8 1.6-3.3 2.1-4.4 2-5.2-0.1-0.8-1.8-1.6l-1.3-0.6 0.5-1.3q3.1 1.6 4.9 2.5 1.9 0.9 4.6 2l-0.6 1.3-1.1-0.6q-2-0.9-2.8-0.4-0.7 0.5-2.7 4.8-0.7 1.6-1.3 3.3z"/>
			<path id="&lt;Path&gt;" class="s0" d="m96.2 187.6l5 2.4 2.9 1.3q2.6 1.3 3.9 1.8 1.5-2.6 2.9-5.8 1-2.1 1.5-3.6 0.3-1 0.3-2.2-1.5-1.3-4-3.1l0.6-1.2q4.2 2.6 5.7 3.3l0.9 0.4q-0.8 2.3-1.7 4.3l-1.4 3q-2.4 4.8-3.5 7.1-1 2.2-2.5 5.9l-1.3-0.6 0.3-0.6q0.7-1.6 0.6-2.2-0.2-0.6-1.4-1.3-1.2-0.8-5.6-2.9l-11.2-5.3q-2.8-1.3-4.6-2-1.8-0.7-2.2-0.7-0.4 0-0.7 0.2-0.3 0.1-1.1 1.4l-0.8 1.4-1.2-0.6 0.9-2 1-2q0.8-1.6 1.2-2.5l3.2-7.3 1.6-3.4q0.8-1.8 1.8-3.5 2 1.9 5.9 3.8l-0.6 1.2q-2.3-1-3.9-1.5-1.9 1.8-3.4 5-1.2 2.6-2.2 5.5 1.9 0.9 3.8 1.9l3.1 1.5 4.2 2q0.9-1.8 1.6-3.3 2.1-4.4 2-5.2-0.1-0.8-1.8-1.6l-1.3-0.6 0.5-1.3q3.1 1.6 4.9 2.5 1.9 0.9 4.6 2l-0.6 1.3-1.1-0.6q-2-0.9-2.8-0.4-0.7 0.5-2.7 4.8-0.7 1.6-1.3 3.3z"/>
			<path id="&lt;Path&gt;" class="s0" d="m111.3 157.4q3.8 0.1 8.9-0.1l6.9-0.3q1.8-0.1 2.1-0.3l0.6-0.4 0.3-0.5 1.2 0.8q-1.1 1.3-1.8 2.4-0.6 1-1.2 2.2l-13 0.2q-3.6 0.1-7.2 0.5l-0.5-0.6q0.7-0.9 1-1.4 1.9-2.9 1.3-5.6-0.5-2.8-3.3-4.6-2.4-1.6-4.6-1.1-2.3 0.5-4 3.2-1.2 1.8-1.6 4.1 2.9 2.2 6.3 4.5l9.1 6q6.6 4.4 7.6 4.5 0.9 0.2 1.9-1.4l0.9-1.4 1.2 0.8q-2 2.8-3.2 4.7-1 1.5-3.4 5.5l-1.2-0.7 0.9-1.4q0.9-1.4 0.4-2.2-0.5-0.7-7.3-5.2l-9-6q-5.9-3.8-6.8-4-0.9-0.1-2 1.7l-0.6 0.9-1.2-0.8q2.2-3.1 3.3-4.8 0.7-1.2 2-3.4 1.5-2.6 2.2-3.7 2-3 3.6-4.1 1.7-1.1 3.5-1 1.9 0 3.7 1.2 2.6 1.8 3.5 4.9 0.9 3.1-0.5 6.9z"/>
			<path id="&lt;Path&gt;" class="s0" d="m111.3 157.4q3.8 0.1 8.9-0.1l6.9-0.3q1.8-0.1 2.1-0.3l0.6-0.4 0.3-0.5 1.2 0.8q-1.1 1.3-1.8 2.4-0.6 1-1.2 2.2l-13 0.2q-3.6 0.1-7.2 0.5l-0.5-0.6q0.7-0.9 1-1.4 1.9-2.9 1.3-5.6-0.5-2.8-3.3-4.6-2.4-1.6-4.6-1.1-2.3 0.5-4 3.2-1.2 1.8-1.6 4.1 2.9 2.2 6.3 4.5l9.1 6q6.6 4.4 7.6 4.5 0.9 0.2 1.9-1.4l0.9-1.4 1.2 0.8q-2 2.8-3.2 4.7-1 1.5-3.4 5.5l-1.2-0.7 0.9-1.4q0.9-1.4 0.4-2.2-0.5-0.7-7.3-5.2l-9-6q-5.9-3.8-6.8-4-0.9-0.1-2 1.7l-0.6 0.9-1.2-0.8q2.2-3.1 3.3-4.8 0.7-1.2 2-3.4 1.5-2.6 2.2-3.7 2-3 3.6-4.1 1.7-1.1 3.5-1 1.9 0 3.7 1.2 2.6 1.8 3.5 4.9 0.9 3.1-0.5 6.9z"/>
			<path id="&lt;Path&gt;" class="s0" d="m120.9 120.9q1.4 2 4.4 4.5l-0.9 1.1-1.4-1.1q-1.3-1.2-2.1-1.3-0.8 0-2.5 0.9-1.7 1-3 2.5-2.1 2.6-1.9 5.2 0.2 2.7 2.4 4.5 1.4 1.2 2.9 1.5 1.4 0.2 2.7-0.4 1.3-0.7 4.3-3.7 3.1-3 4.6-3.6 1.5-0.7 3.4-0.3 1.8 0.4 3.5 1.8 3.5 3 3.8 7.8 0.3 4.8-3.4 9.2-1.3 1.6-2.9 2.8-1.6 1.3-3.6 2.3-1.8-2-5.1-4.8l0.9-1.1 0.9 0.8q1.7 1.4 2.2 1.6 0.5 0.2 1.5-0.1 1.3-0.3 2.7-1.1 1.4-1 2.5-2.4 2.5-3 2.3-5.9-0.2-3-2.5-5-1.4-1.2-2.8-1.4-1.4-0.3-2.7 0.3-1.3 0.6-3.8 3.1-3.3 3.4-5 4.1-1.7 0.8-3.6 0.4-1.9-0.4-3.9-2.1-3.4-2.9-3.7-6.9-0.2-4.1 3-8.1 1.4-1.6 3.1-2.8 1.6-1.3 3.7-2.3z"/>
			<path id="&lt;Path&gt;" class="s0" d="m120.9 120.9q1.4 2 4.4 4.5l-0.9 1.1-1.4-1.1q-1.3-1.2-2.1-1.3-0.8 0-2.5 0.9-1.7 1-3 2.5-2.1 2.6-1.9 5.2 0.2 2.7 2.4 4.5 1.4 1.2 2.9 1.5 1.4 0.2 2.7-0.4 1.3-0.7 4.3-3.7 3.1-3 4.6-3.6 1.5-0.7 3.4-0.3 1.8 0.4 3.5 1.8 3.5 3 3.8 7.8 0.3 4.8-3.4 9.2-1.3 1.6-2.9 2.8-1.6 1.3-3.6 2.3-1.8-2-5.1-4.8l0.9-1.1 0.9 0.8q1.7 1.4 2.2 1.6 0.5 0.2 1.5-0.1 1.3-0.3 2.7-1.1 1.4-1 2.5-2.4 2.5-3 2.3-5.9-0.2-3-2.5-5-1.4-1.2-2.8-1.4-1.4-0.3-2.7 0.3-1.3 0.6-3.8 3.1-3.3 3.4-5 4.1-1.7 0.8-3.6 0.4-1.9-0.4-3.9-2.1-3.4-2.9-3.7-6.9-0.2-4.1 3-8.1 1.4-1.6 3.1-2.8 1.6-1.3 3.7-2.3z"/>
			<path id="&lt;Path&gt;" class="s0" d="m145.1 138l0.9-1q1.3-1.4 0.8-2.3-0.5-1-6.7-7.2l-5.5-5.3q-6.4-6.4-7.3-6.8-0.9-0.4-2.1 0.8l-1.1 1.2-1-1q2.4-2.4 4.7-4.8 2-2 3.4-3.8l1 1-1.1 1.2q-1 1-1 1.6 0.1 0.5 1.1 1.7 1.7 1.7 6.1 6.1l5.6 5.5q6.3 6.1 7.2 6.5 0.9 0.4 2.2-1l0.9-1 1 1q-1.8 1.7-3.9 3.9-2.4 2.5-4.2 4.7z"/>
			<path id="&lt;Path&gt;" class="s0" d="m145.1 138l0.9-1q1.3-1.4 0.8-2.3-0.5-1-6.7-7.2l-5.5-5.3q-6.4-6.4-7.3-6.8-0.9-0.4-2.1 0.8l-1.1 1.2-1-1q2.4-2.4 4.7-4.8 2-2 3.4-3.8l1 1-1.1 1.2q-1 1-1 1.6 0.1 0.5 1.1 1.7 1.7 1.7 6.1 6.1l5.6 5.5q6.3 6.1 7.2 6.5 0.9 0.4 2.2-1l0.9-1 1 1q-1.8 1.7-3.9 3.9-2.4 2.5-4.2 4.7z"/>
			<path id="&lt;Path&gt;" class="s0" d="m146 97.3q2 2.8 4.4 5.7l8.2 10q4.6 5.5 5.4 5.9 0.7 0.4 2.2-1l1.2-1 0.9 1.2q-2.9 2.2-4.8 3.8-2 1.7-4.6 4.1l-0.9-1.1 1.3-1.1q1.1-0.9 1.1-1.4 0.1-0.6-0.6-1.6-1.5-2.1-4.2-5.4l-8.2-10q-2.5-2.9-4.6-5.3l-1.6 1.4q-3.9 3.3-4.1 3.8-0.3 0.5 0.8 2l1.7 2.5-1 0.9-1.7-2.1q-1-1.3-3.2-3.5 8.6-7.1 10.1-8.4l8.5-7.5q2.2 3.2 4.4 6l-1 0.9-2-2.2q-1.1-1.1-1.4-1.2-0.4-0.1-1 0.4-1.9 1.3-4.1 3.2z"/>
			<path id="&lt;Path&gt;" class="s0" d="m146 97.3q2 2.8 4.4 5.7l8.2 10q4.6 5.5 5.4 5.9 0.7 0.4 2.2-1l1.2-1 0.9 1.2q-2.9 2.2-4.8 3.8-2 1.7-4.6 4.1l-0.9-1.1 1.3-1.1q1.1-0.9 1.1-1.4 0.1-0.6-0.6-1.6-1.5-2.1-4.2-5.4l-8.2-10q-2.5-2.9-4.6-5.3l-1.6 1.4q-3.9 3.3-4.1 3.8-0.3 0.5 0.8 2l1.7 2.5-1 0.9-1.7-2.1q-1-1.3-3.2-3.5 8.6-7.1 10.1-8.4l8.5-7.5q2.2 3.2 4.4 6l-1 0.9-2-2.2q-1.1-1.1-1.4-1.2-0.4-0.1-1 0.4-1.9 1.3-4.1 3.2z"/>
			<path id="&lt;Compound Path&gt;" fill-rule="evenodd" class="s0" d="m177.9 97.2l-9.7 6.9 0.9 3.8q1 3.8 1.4 4.5 0.3 0.4 0.7 0.5 0.3 0 1.2-0.5l1.8-0.9 0.8 1.2q-1.7 1-3.7 2.4-2.4 1.7-4.2 3.2l-0.8-1.2 0.5-0.4q1.2-0.9 1.3-1.3 0.2-0.5 0-1.7-0.7-3.6-1.6-7.6l-3.4-14.9q-1.4-6-2.2-8.5l1.2-0.8 23.7 16q2.4 1.6 3 1.8 0.6 0.3 1.1 0.2 0.5 0 1.8-0.9l0.8 1.2q-2.2 1.4-4.2 2.8-1.9 1.3-4.8 3.7l-0.9-1.2 1.6-1.3q0.9-0.7 0.9-1l-0.1-0.7q-0.2-0.3-1.7-1.4zm-10.1 4.9l8.4-6-11.9-8.2z"/>
			<path id="&lt;Compound Path&gt;" fill-rule="evenodd" class="s0" d="m177.9 97.2l-9.7 6.9 0.9 3.8q1 3.8 1.4 4.5 0.3 0.4 0.7 0.5 0.3 0 1.2-0.5l1.8-0.9 0.8 1.2q-1.7 1-3.7 2.4-2.4 1.7-4.2 3.2l-0.8-1.2 0.5-0.4q1.2-0.9 1.3-1.3 0.2-0.5 0-1.7-0.7-3.6-1.6-7.6l-3.4-14.9q-1.4-6-2.2-8.5l1.2-0.8 23.7 16q2.4 1.6 3 1.8 0.6 0.3 1.1 0.2 0.5 0 1.8-0.9l0.8 1.2q-2.2 1.4-4.2 2.8-1.9 1.3-4.8 3.7l-0.9-1.2 1.6-1.3q0.9-0.7 0.9-1l-0.1-0.7q-0.2-0.3-1.7-1.4zm-10.1 4.9l8.4-6-11.9-8.2z"/>
			<path id="&lt;Path&gt;" class="s0" d="m194.8 64.5q0.6 2.3 2.4 5.8l-1.3 0.7-0.8-1.6q-0.8-1.6-1.5-2-0.7-0.3-2.6-0.1-1.9 0.2-3.7 1.2-2.9 1.6-3.7 4.1-0.8 2.5 0.5 5.1 0.9 1.6 2.2 2.4 1.3 0.8 2.7 0.7 1.4-0.1 5.3-1.8 4-1.6 5.6-1.6 1.7-0.1 3.2 1 1.6 1 2.6 3.1 2.2 4 0.7 8.6-1.5 4.5-6.6 7.3-1.7 0.9-3.7 1.5-2 0.5-4.2 0.7-0.9-2.6-2.9-6.4l1.2-0.6 0.5 1q1.1 1.9 1.5 2.3 0.4 0.4 1.4 0.5 1.4 0.3 3 0 1.5-0.4 3.1-1.2 3.4-1.9 4.4-4.7 0.9-2.8-0.6-5.5-0.8-1.6-2-2.4-1.2-0.8-2.7-0.7-1.4 0-4.6 1.4-4.3 1.9-6.1 1.9-1.9 0.1-3.5-1-1.7-1.1-2.9-3.5-2-3.9-0.8-7.8 1.2-3.8 5.7-6.3 1.8-0.9 3.9-1.5 2-0.5 4.3-0.6z"/>
			<path id="&lt;Path&gt;" class="s0" d="m194.8 64.5q0.6 2.3 2.4 5.8l-1.3 0.7-0.8-1.6q-0.8-1.6-1.5-2-0.7-0.3-2.6-0.1-1.9 0.2-3.7 1.2-2.9 1.6-3.7 4.1-0.8 2.5 0.5 5.1 0.9 1.6 2.2 2.4 1.3 0.8 2.7 0.7 1.4-0.1 5.3-1.8 4-1.6 5.6-1.6 1.7-0.1 3.2 1 1.6 1 2.6 3.1 2.2 4 0.7 8.6-1.5 4.5-6.6 7.3-1.7 0.9-3.7 1.5-2 0.5-4.2 0.7-0.9-2.6-2.9-6.4l1.2-0.6 0.5 1q1.1 1.9 1.5 2.3 0.4 0.4 1.4 0.5 1.4 0.3 3 0 1.5-0.4 3.1-1.2 3.4-1.9 4.4-4.7 0.9-2.8-0.6-5.5-0.8-1.6-2-2.4-1.2-0.8-2.7-0.7-1.4 0-4.6 1.4-4.3 1.9-6.1 1.9-1.9 0.1-3.5-1-1.7-1.1-2.9-3.5-2-3.9-0.8-7.8 1.2-3.8 5.7-6.3 1.8-0.9 3.9-1.5 2-0.5 4.3-0.6z"/>
			<path id="&lt;Path&gt;" class="s0" d="m212 69.5q0.8-0.3 1.6 0.1 0.8 0.4 1.1 1.2 0.3 0.9 0 1.7-0.3 0.9-1.1 1.2-0.8 0.3-1.6-0.1-0.8-0.3-1.1-1.2-0.4-0.9-0.1-1.7 0.4-0.8 1.2-1.2z"/>
			<path id="&lt;Path&gt;" class="s0" d="m212 69.5q0.8-0.3 1.6 0.1 0.8 0.4 1.1 1.2 0.3 0.9 0 1.7-0.3 0.9-1.1 1.2-0.8 0.3-1.6-0.1-0.8-0.3-1.1-1.2-0.4-0.9-0.1-1.7 0.4-0.8 1.2-1.2z"/>
			<path id="&lt;Path&gt;" class="s0" d="m239.1 48.2q0.1 2.4 1.2 6.2l-1.4 0.4-0.5-1.7q-0.5-1.7-1.1-2.2-0.6-0.5-2.5-0.6-2-0.2-3.9 0.4-3.1 1-4.4 3.3-1.2 2.3-0.4 5.1 0.5 1.7 1.6 2.8 1.1 1 2.5 1.2 1.5 0.1 5.6-0.7 4.2-0.8 5.8-0.5 1.7 0.2 3 1.6 1.3 1.3 2 3.5 1.3 4.4-1 8.6-2.4 4.2-7.9 5.8-1.8 0.6-3.9 0.8-2 0.2-4.2-0.1-0.4-2.7-1.7-6.8l1.4-0.4 0.3 1.1q0.6 2.1 1 2.5 0.3 0.5 1.2 0.8 1.3 0.6 3 0.5 1.6 0 3.3-0.5 3.7-1.2 5.1-3.7 1.5-2.6 0.6-5.6-0.6-1.7-1.6-2.7-1.1-1-2.5-1.2-1.4-0.3-4.8 0.5-4.5 1-6.4 0.7-1.8-0.3-3.2-1.7-1.4-1.5-2.2-4-1.2-4.2 0.7-7.8 1.9-3.6 6.8-5.1 2-0.6 4.1-0.7 2.1-0.2 4.4 0.2z"/>
			<path id="&lt;Path&gt;" class="s0" d="m239.1 48.2q0.1 2.4 1.2 6.2l-1.4 0.4-0.5-1.7q-0.5-1.7-1.1-2.2-0.6-0.5-2.5-0.6-2-0.2-3.9 0.4-3.1 1-4.4 3.3-1.2 2.3-0.4 5.1 0.5 1.7 1.6 2.8 1.1 1 2.5 1.2 1.5 0.1 5.6-0.7 4.2-0.8 5.8-0.5 1.7 0.2 3 1.6 1.3 1.3 2 3.5 1.3 4.4-1 8.6-2.4 4.2-7.9 5.8-1.8 0.6-3.9 0.8-2 0.2-4.2-0.1-0.4-2.7-1.7-6.8l1.4-0.4 0.3 1.1q0.6 2.1 1 2.5 0.3 0.5 1.2 0.8 1.3 0.6 3 0.5 1.6 0 3.3-0.5 3.7-1.2 5.1-3.7 1.5-2.6 0.6-5.6-0.6-1.7-1.6-2.7-1.1-1-2.5-1.2-1.4-0.3-4.8 0.5-4.5 1-6.4 0.7-1.8-0.3-3.2-1.7-1.4-1.5-2.2-4-1.2-4.2 0.7-7.8 1.9-3.6 6.8-5.1 2-0.6 4.1-0.7 2.1-0.2 4.4 0.2z"/>
			<path id="&lt;Path&gt;" class="s0" d="m258.4 45.2q0.3 3.4 0.9 7.2l2 12.8q1.1 7.2 1.5 7.9 0.5 0.7 2.5 0.4l1.5-0.3 0.2 1.4q-3.6 0.5-6.1 0.9-2.5 0.4-6 1.1l-0.2-1.4 1.7-0.3q1.3-0.2 1.7-0.7 0.3-0.5 0.2-1.6-0.2-2.7-0.8-6.9l-2-12.8q-0.6-3.9-1.3-7l-2 0.3q-5 0.8-5.5 1.2-0.5 0.3-0.3 2.1l0.1 3.1-1.2 0.2-0.4-2.7q-0.3-1.7-1-4.7 11-1.6 12.9-1.9l11.1-1.9q0.2 3.9 0.7 7.4l-1.2 0.2-0.7-2.9q-0.3-1.5-0.6-1.8-0.3-0.2-1.1-0.2-2.2 0.2-5 0.7z"/>
			<path id="&lt;Path&gt;" class="s0" d="m258.4 45.2q0.3 3.4 0.9 7.2l2 12.8q1.1 7.2 1.5 7.9 0.5 0.7 2.5 0.4l1.5-0.3 0.2 1.4q-3.6 0.5-6.1 0.9-2.5 0.4-6 1.1l-0.2-1.4 1.7-0.3q1.3-0.2 1.7-0.7 0.3-0.5 0.2-1.6-0.2-2.7-0.8-6.9l-2-12.8q-0.6-3.9-1.3-7l-2 0.3q-5 0.8-5.5 1.2-0.5 0.3-0.3 2.1l0.1 3.1-1.2 0.2-0.4-2.7q-0.3-1.7-1-4.7 11-1.6 12.9-1.9l11.1-1.9q0.2 3.9 0.7 7.4l-1.2 0.2-0.7-2.9q-0.3-1.5-0.6-1.8-0.3-0.2-1.1-0.2-2.2 0.2-5 0.7z"/>
			<path id="&lt;Path&gt;" class="s0" d="m271.5 42.1v-1.4q4.1 0 6 0 2.1-0.1 5.9-0.4l0.1 1.4-1.5 0.1q-1.9 0-2.3 0.9-0.4 0.8-0.1 7.4l0.3 9q0.1 4.9 0.7 6.8 0.5 1.9 2.6 3.1 2 1.3 5.4 1.2 3.4-0.1 5.8-1.7 1.6-1 2.3-3.1 0.7-2.1 0.4-7.8l-0.2-8.7q-0.3-5.9-0.8-6.8-0.5-0.8-2.6-0.7h-1.1v-1.4q4.2 0 5.3-0.1 1.9 0 4.7-0.3v1.4l-1.4 0.1q-1.6 0.1-2 1.1-0.5 0.9-0.3 6.8l0.3 8.5q0.2 5.9-0.2 8-0.5 2-1.8 3.7-1.3 1.7-3.6 2.7-2.2 1.1-5.4 1.2-3.2 0.1-5.6-0.7-2.5-0.7-3.7-1.9-1.3-1.3-1.9-3-0.6-1.8-0.7-6.2l-0.1-4.3-0.3-7q-0.2-6.4-0.6-7.2-0.3-0.8-2.2-0.7z"/>
			<path id="&lt;Path&gt;" class="s0" d="m271.5 42.1v-1.4q4.1 0 6 0 2.1-0.1 5.9-0.4l0.1 1.4-1.5 0.1q-1.9 0-2.3 0.9-0.4 0.8-0.1 7.4l0.3 9q0.1 4.9 0.7 6.8 0.5 1.9 2.6 3.1 2 1.3 5.4 1.2 3.4-0.1 5.8-1.7 1.6-1 2.3-3.1 0.7-2.1 0.4-7.8l-0.2-8.7q-0.3-5.9-0.8-6.8-0.5-0.8-2.6-0.7h-1.1v-1.4q4.2 0 5.3-0.1 1.9 0 4.7-0.3v1.4l-1.4 0.1q-1.6 0.1-2 1.1-0.5 0.9-0.3 6.8l0.3 8.5q0.2 5.9-0.2 8-0.5 2-1.8 3.7-1.3 1.7-3.6 2.7-2.2 1.1-5.4 1.2-3.2 0.1-5.6-0.7-2.5-0.7-3.7-1.9-1.3-1.3-1.9-3-0.6-1.8-0.7-6.2l-0.1-4.3-0.3-7q-0.2-6.4-0.6-7.2-0.3-0.8-2.2-0.7z"/>
			<path id="&lt;Compound Path&gt;" fill-rule="evenodd" class="s0" d="m306.9 70.1q0.7-3.5 1.8-12.3l0.8-6.5q0.5-4.1 0.6-7 0-1.7-0.2-2.1-0.2-0.3-1.6-0.7l-1.6-0.4 0.2-1.5q3.3 0.6 4.5 0.7l5.5 0.6 4.4 0.5q2.7 0.3 5.5 1.3 2.7 1 4.8 3.2 2 2.2 2.9 5.2 0.8 3.1 0.4 6.9-1 7.6-6.2 12-5.2 4.5-12.7 3.5l-2.5-0.3q-3.6-0.6-4.6-0.8-1.6-0.2-4.2-0.2l0.1-1.1zm4.4 0.4q2.7 0.8 4.8 1.1 5.7 0.7 9.3-2.2 4.2-3.5 5.1-11.1 0.8-6.6-1.9-10.5-2.7-3.8-8.8-4.6-2.2-0.2-5.1-0.1-0.6 2.1-0.9 4.9l-1.8 14.8q-0.5 4.1-0.7 7.7z"/>
			<path id="&lt;Compound Path&gt;" fill-rule="evenodd" class="s0" d="m306.9 70.1q0.7-3.5 1.8-12.3l0.8-6.5q0.5-4.1 0.6-7 0-1.7-0.2-2.1-0.2-0.3-1.6-0.7l-1.6-0.4 0.2-1.5q3.3 0.6 4.5 0.7l5.5 0.6 4.4 0.5q2.7 0.3 5.5 1.3 2.7 1 4.8 3.2 2 2.2 2.9 5.2 0.8 3.1 0.4 6.9-1 7.6-6.2 12-5.2 4.5-12.7 3.5l-2.5-0.3q-3.6-0.6-4.6-0.8-1.6-0.2-4.2-0.2l0.1-1.1zm4.4 0.4q2.7 0.8 4.8 1.1 5.7 0.7 9.3-2.2 4.2-3.5 5.1-11.1 0.8-6.6-1.9-10.5-2.7-3.8-8.8-4.6-2.2-0.2-5.1-0.1-0.6 2.1-0.9 4.9l-1.8 14.8q-0.5 4.1-0.7 7.7z"/>
			<path id="&lt;Path&gt;" class="s0" d="m334.5 74.6l1.3 0.2q1.8 0.4 2.4-0.5 0.6-0.9 2.4-9.5l1.6-7.6q1.9-8.9 1.7-9.9-0.1-1-1.7-1.4l-1.6-0.3 0.3-1.4q3.3 0.8 6.5 1.5 2.7 0.6 4.9 0.9l-0.2 1.5-1.6-0.4q-1.4-0.3-1.9 0-0.4 0.3-0.8 1.9-0.6 2.3-1.9 8.4l-1.6 7.8q-1.8 8.6-1.6 9.6 0.1 0.9 2 1.4l1.3 0.2-0.3 1.4q-2.4-0.6-5.3-1.3-3.4-0.7-6.2-1.1z"/>
			<path id="&lt;Path&gt;" class="s0" d="m334.5 74.6l1.3 0.2q1.8 0.4 2.4-0.5 0.6-0.9 2.4-9.5l1.6-7.6q1.9-8.9 1.7-9.9-0.1-1-1.7-1.4l-1.6-0.3 0.3-1.4q3.3 0.8 6.5 1.5 2.7 0.6 4.9 0.9l-0.2 1.5-1.6-0.4q-1.4-0.3-1.9 0-0.4 0.3-0.8 1.9-0.6 2.3-1.9 8.4l-1.6 7.8q-1.8 8.6-1.6 9.6 0.1 0.9 2 1.4l1.3 0.2-0.3 1.4q-2.4-0.6-5.3-1.3-3.4-0.7-6.2-1.1z"/>
			<path id="&lt;Compound Path&gt;" fill-rule="evenodd" class="s0" d="m351.2 62.8q2.3-7.1 7.8-10.1 5.5-3.1 12.4-0.8 6.7 2.2 9.2 7.6 2.6 5.3 0.4 12-2.3 7.2-8.3 10.6-6 3.4-12.7 1.2-4.2-1.4-6.7-4.3-2.4-2.9-3-7.2-0.6-4.3 0.9-9zm4.5-0.5q-1.6 4.9-1.2 9.1 0.3 4.1 2.3 6.8 1.9 2.6 5.2 3.7 3 1 5.8 0.2 2.7-0.8 5-3.5 2.3-2.6 3.7-7 1.4-4.6 1-8.3-0.3-3.8-2.3-6.2-2-2.5-5.4-3.6-3.1-1.1-5.8-0.3-2.7 0.7-4.9 3.1-2.2 2.3-3.4 6z"/>
			<path id="&lt;Compound Path&gt;" fill-rule="evenodd" class="s0" d="m351.2 62.8q2.3-7.1 7.8-10.1 5.5-3.1 12.4-0.8 6.7 2.2 9.2 7.6 2.6 5.3 0.4 12-2.3 7.2-8.3 10.6-6 3.4-12.7 1.2-4.2-1.4-6.7-4.3-2.4-2.9-3-7.2-0.6-4.3 0.9-9zm4.5-0.5q-1.6 4.9-1.2 9.1 0.3 4.1 2.3 6.8 1.9 2.6 5.2 3.7 3 1 5.8 0.2 2.7-0.8 5-3.5 2.3-2.6 3.7-7 1.4-4.6 1-8.3-0.3-3.8-2.3-6.2-2-2.5-5.4-3.6-3.1-1.1-5.8-0.3-2.7 0.7-4.9 3.1-2.2 2.3-3.4 6z"/>
			<path id="&lt;Path&gt;" class="s0" d="m396.1 80.1q0.5 3.8 1.3 9l1.1 6.8q0.3 1.8 0.5 2.1l0.5 0.5 0.5 0.3-0.6 1.3q-1.5-0.9-2.6-1.5-1.1-0.5-2.3-0.9l-1.8-13.1q-0.5-3.6-1.3-7.2l0.5-0.6q1 0.6 1.5 0.9 3.1 1.5 5.7 0.6 2.6-0.9 4-3.9 1.3-2.6 0.5-4.8-0.8-2.2-3.5-3.6-2-1-4.3-1.1-1.8 3.1-3.6 6.8l-4.7 9.9q-3.5 7.3-3.6 8.2-0.1 1 1.7 1.8l1.4 0.7-0.6 1.3q-3-1.6-5-2.6-1.6-0.8-5.8-2.7l0.6-1.3 1.4 0.7q1.6 0.8 2.2 0.1 0.7-0.6 4.2-7.9l4.8-9.9q3-6.3 3-7.3 0.1-0.9-1.8-1.8l-1-0.5 0.6-1.3q3.4 1.8 5.2 2.7 1.2 0.6 3.5 1.6 2.7 1.2 3.9 1.8 3.2 1.6 4.4 3.2 1.3 1.5 1.5 3.4 0.2 1.8-0.8 3.8-1.3 2.9-4.3 4.2-2.9 1.3-6.9 0.3z"/>
			<path id="&lt;Path&gt;" class="s0" d="m396.1 80.1q0.5 3.8 1.3 9l1.1 6.8q0.3 1.8 0.5 2.1l0.5 0.5 0.5 0.3-0.6 1.3q-1.5-0.9-2.6-1.5-1.1-0.5-2.3-0.9l-1.8-13.1q-0.5-3.6-1.3-7.2l0.5-0.6q1 0.6 1.5 0.9 3.1 1.5 5.7 0.6 2.6-0.9 4-3.9 1.3-2.6 0.5-4.8-0.8-2.2-3.5-3.6-2-1-4.3-1.1-1.8 3.1-3.6 6.8l-4.7 9.9q-3.5 7.3-3.6 8.2-0.1 1 1.7 1.8l1.4 0.7-0.6 1.3q-3-1.6-5-2.6-1.6-0.8-5.8-2.7l0.6-1.3 1.4 0.7q1.6 0.8 2.2 0.1 0.7-0.6 4.2-7.9l4.8-9.9q3-6.3 3-7.3 0.1-0.9-1.8-1.8l-1-0.5 0.6-1.3q3.4 1.8 5.2 2.7 1.2 0.6 3.5 1.6 2.7 1.2 3.9 1.8 3.2 1.6 4.4 3.2 1.3 1.5 1.5 3.4 0.2 1.8-0.8 3.8-1.3 2.9-4.3 4.2-2.9 1.3-6.9 0.3z"/>
			<path id="&lt;Path&gt;" class="s0" d="m416 74l0.8-1.2q3.3 2.6 4.9 3.7 1.6 1.2 4.9 3.3l-0.8 1.2-1.2-0.9q-1.6-1.1-2.4-0.6-0.8 0.4-4.5 5.8l-5.1 7.4q-2.8 4-3.5 5.8-0.6 1.9 0.3 4.1 0.8 2.3 3.6 4.3 2.8 2 5.6 2.2 1.9 0.1 3.7-1.1 1.8-1.3 5-6l4.9-7q3.4-4.9 3.4-5.9 0.1-1-1.6-2.3l-0.9-0.6 0.8-1.2q3.4 2.6 4.3 3.3 1.5 1.1 3.9 2.6l-0.8 1.1-1.2-0.8q-1.3-0.9-2.2-0.4-0.9 0.5-4.2 5.3l-4.9 7q-3.3 4.8-4.9 6.2-1.5 1.4-3.6 1.9-2.1 0.6-4.5 0-2.4-0.5-5-2.4-2.6-1.8-4.1-3.9-1.5-2.1-1.8-3.9-0.3-1.7 0.3-3.5 0.6-1.8 3.1-5.4l2.4-3.5 4-5.7q3.6-5.3 3.8-6.1 0.1-0.9-1.4-1.9z"/>
			<path id="&lt;Path&gt;" class="s0" d="m416 74l0.8-1.2q3.3 2.6 4.9 3.7 1.6 1.2 4.9 3.3l-0.8 1.2-1.2-0.9q-1.6-1.1-2.4-0.6-0.8 0.4-4.5 5.8l-5.1 7.4q-2.8 4-3.5 5.8-0.6 1.9 0.3 4.1 0.8 2.3 3.6 4.3 2.8 2 5.6 2.2 1.9 0.1 3.7-1.1 1.8-1.3 5-6l4.9-7q3.4-4.9 3.4-5.9 0.1-1-1.6-2.3l-0.9-0.6 0.8-1.2q3.4 2.6 4.3 3.3 1.5 1.1 3.9 2.6l-0.8 1.1-1.2-0.8q-1.3-0.9-2.2-0.4-0.9 0.5-4.2 5.3l-4.9 7q-3.3 4.8-4.9 6.2-1.5 1.4-3.6 1.9-2.1 0.6-4.5 0-2.4-0.5-5-2.4-2.6-1.8-4.1-3.9-1.5-2.1-1.8-3.9-0.3-1.7 0.3-3.5 0.6-1.8 3.1-5.4l2.4-3.5 4-5.7q3.6-5.3 3.8-6.1 0.1-0.9-1.4-1.9z"/>
			<path id="&lt;Path&gt;" class="s0" d="m464.3 118l-14 5.9q-7.9 3.3-13.5 6l-0.6-0.6q0.8-2 4-10.6l6.3-17.3-12.1 12.7q-4.2 4.4-4.5 5.3-0.2 1 1.5 2.6l0.5 0.5-1 1q-1.9-2.1-3.2-3.3-0.9-0.9-3.8-3.5l1-1.1 0.9 1q1 0.9 1.6 0.9 0.6 0 1.5-0.7 2.4-2.1 4.9-4.8l8.8-9.3q3.2-3.4 4.1-4.6 0.5-0.6 0.4-1.3-0.1-0.6-1.2-1.7l-0.8-0.8 1-1q2.5 2.6 3.1 3.3 0.9 0.8 2.5 2.2-2.4 6.1-5.1 13.7l-4.6 12.7 11.4-4.7q6-2.5 14.2-6.2 1.7 1.9 2.5 2.7 0.8 0.8 3.2 2.9l-1 1.1-0.9-1q-1.3-1.2-2.1-1-0.8 0.2-3.7 3.3l-11.4 12q-3.8 4-4.1 4.9-0.3 0.9 1.1 2.3l0.9 0.8-1 1q-2-2.1-3.8-3.9-2.1-2.1-4.5-4.1l1-1.1 1 1q1.2 1.1 1.9 0.8 0.8-0.3 4.9-4.7z"/>
			<path id="&lt;Path&gt;" class="s0" d="m464.3 118l-14 5.9q-7.9 3.3-13.5 6l-0.6-0.6q0.8-2 4-10.6l6.3-17.3-12.1 12.7q-4.2 4.4-4.5 5.3-0.2 1 1.5 2.6l0.5 0.5-1 1q-1.9-2.1-3.2-3.3-0.9-0.9-3.8-3.5l1-1.1 0.9 1q1 0.9 1.6 0.9 0.6 0 1.5-0.7 2.4-2.1 4.9-4.8l8.8-9.3q3.2-3.4 4.1-4.6 0.5-0.6 0.4-1.3-0.1-0.6-1.2-1.7l-0.8-0.8 1-1q2.5 2.6 3.1 3.3 0.9 0.8 2.5 2.2-2.4 6.1-5.1 13.7l-4.6 12.7 11.4-4.7q6-2.5 14.2-6.2 1.7 1.9 2.5 2.7 0.8 0.8 3.2 2.9l-1 1.1-0.9-1q-1.3-1.2-2.1-1-0.8 0.2-3.7 3.3l-11.4 12q-3.8 4-4.1 4.9-0.3 0.9 1.1 2.3l0.9 0.8-1 1q-2-2.1-3.8-3.9-2.1-2.1-4.5-4.1l1-1.1 1 1q1.2 1.1 1.9 0.8 0.8-0.3 4.9-4.7z"/>
			<path id="&lt;Path&gt;" class="s0" d="m468.1 137.7q0.6 0.7 0.5 1.7-0.1 1-0.9 1.7-0.8 0.6-1.8 0.5-0.9 0-1.5-0.8-0.6-0.8-0.5-1.7 0.1-1 0.9-1.7 0.8-0.6 1.8-0.5 0.9 0 1.5 0.8z"/>
			<path id="&lt;Path&gt;" class="s0" d="m468.1 137.7q0.6 0.7 0.5 1.7-0.1 1-0.9 1.7-0.8 0.6-1.8 0.5-0.9 0-1.5-0.8-0.6-0.8-0.5-1.7 0.1-1 0.9-1.7 0.8-0.6 1.8-0.5 0.9 0 1.5 0.8z"/>
			<path id="&lt;Compound Path&gt;" fill-rule="evenodd" class="s0" d="m482.8 157.4q2.2 3.9 1.6 6.6-0.5 2.8-3.4 4.6-3.6 2.4-8 1.3-4.4-1-7.1-5.3l-0.8-1.4q-1.1-1.8-1.9-3-0.5-0.9-1.4-2.1l-1-1.4 0.9-0.6q1.2 0.8 1.7 0.7 0.4 0.1 1.1-0.4 2.3-1.3 5.2-3.2l11.7-7.8q4.8-3.1 5.2-3.8 0.5-0.9-0.5-2.3l-0.7-1.2 1.1-0.8 1 1.4 0.9 1.7q0.8 1.3 1.2 2 0.7 1.1 2.9 4.3l1.7 2.5q1.9 3 1.7 5.2-0.2 2.8-2.8 4.5-2.2 1.5-4.7 1.2-2.4-0.2-5.6-2.7zm-3.1-6.1q0.5 0.9 0.9 1.6 2.3 3.5 4.5 4.1 2.3 0.6 4.8-1 2.2-1.5 2.6-3.5 0.3-2-1.4-4.8-0.8-1.2-2-2.5-2.4 1.4-7 4.5zm-13.8 9.1q0.7 1.8 1.4 2.8 2 3.1 4.8 3.6 2.9 0.6 6-1.4 2-1.4 2.9-3 0.8-1.6 0.6-3.4-0.3-1.8-2.2-4.7-0.5-0.9-1.3-2l-6.7 4.4-2.4 1.6q-1.2 0.9-1.9 1.4-0.5 0.3-1.2 0.7z"/>
			<path id="&lt;Compound Path&gt;" fill-rule="evenodd" class="s0" d="m482.8 157.4q2.2 3.9 1.6 6.6-0.5 2.8-3.4 4.6-3.6 2.4-8 1.3-4.4-1-7.1-5.3l-0.8-1.4q-1.1-1.8-1.9-3-0.5-0.9-1.4-2.1l-1-1.4 0.9-0.6q1.2 0.8 1.7 0.7 0.4 0.1 1.1-0.4 2.3-1.3 5.2-3.2l11.7-7.8q4.8-3.1 5.2-3.8 0.5-0.9-0.5-2.3l-0.7-1.2 1.1-0.8 1 1.4 0.9 1.7q0.8 1.3 1.2 2 0.7 1.1 2.9 4.3l1.7 2.5q1.9 3 1.7 5.2-0.2 2.8-2.8 4.5-2.2 1.5-4.7 1.2-2.4-0.2-5.6-2.7zm-3.1-6.1q0.5 0.9 0.9 1.6 2.3 3.5 4.5 4.1 2.3 0.6 4.8-1 2.2-1.5 2.6-3.5 0.3-2-1.4-4.8-0.8-1.2-2-2.5-2.4 1.4-7 4.5zm-13.8 9.1q0.7 1.8 1.4 2.8 2 3.1 4.8 3.6 2.9 0.6 6-1.4 2-1.4 2.9-3 0.8-1.6 0.6-3.4-0.3-1.8-2.2-4.7-0.5-0.9-1.3-2l-6.7 4.4-2.4 1.6q-1.2 0.9-1.9 1.4-0.5 0.3-1.2 0.7z"/>
			<path id="&lt;Path&gt;" class="s0" d="m494.1 181.6q-1.9 3.2-4.4 7.8l-3.3 6.1q-0.9 1.6-0.9 2 0 0.4 0.1 0.7l0.3 0.5-1.3 0.6q-0.6-1.6-1.2-2.7-0.5-1.1-1.2-2.2l6.5-11.4q1.8-3.2 3.3-6.5l0.8-0.2q0.4 1.1 0.7 1.7 1.5 3.1 4.1 4 2.5 0.9 5.5-0.6 2.6-1.2 3.3-3.5 0.8-2.2-0.6-5-0.9-2-2.7-3.6-3.3 1.4-7 3.2l-9.7 4.8q-7.2 3.6-7.8 4.3-0.6 0.7 0.2 2.4l0.7 1.5-1.3 0.6q-1.3-3.2-2.3-5.2-0.7-1.6-2.9-5.7l1.3-0.7 0.6 1.4q0.8 1.7 1.7 1.6 0.9-0.1 8.1-3.7l9.8-4.8q6.2-3.1 6.8-3.8 0.6-0.7-0.3-2.6l-0.5-1 1.3-0.7q1.5 3.6 2.4 5.4 0.6 1.2 1.8 3.5 1.4 2.6 1.9 3.8 1.6 3.2 1.6 5.3 0.1 2-0.9 3.6-0.9 1.5-2.9 2.5-2.8 1.4-5.9 0.6-3.1-0.8-5.7-4z"/>
			<path id="&lt;Path&gt;" class="s0" d="m494.1 181.6q-1.9 3.2-4.4 7.8l-3.3 6.1q-0.9 1.6-0.9 2 0 0.4 0.1 0.7l0.3 0.5-1.3 0.6q-0.6-1.6-1.2-2.7-0.5-1.1-1.2-2.2l6.5-11.4q1.8-3.2 3.3-6.5l0.8-0.2q0.4 1.1 0.7 1.7 1.5 3.1 4.1 4 2.5 0.9 5.5-0.6 2.6-1.2 3.3-3.5 0.8-2.2-0.6-5-0.9-2-2.7-3.6-3.3 1.4-7 3.2l-9.7 4.8q-7.2 3.6-7.8 4.3-0.6 0.7 0.2 2.4l0.7 1.5-1.3 0.6q-1.3-3.2-2.3-5.2-0.7-1.6-2.9-5.7l1.3-0.7 0.6 1.4q0.8 1.7 1.7 1.6 0.9-0.1 8.1-3.7l9.8-4.8q6.2-3.1 6.8-3.8 0.6-0.7-0.3-2.6l-0.5-1 1.3-0.7q1.5 3.6 2.4 5.4 0.6 1.2 1.8 3.5 1.4 2.6 1.9 3.8 1.6 3.2 1.6 5.3 0.1 2-0.9 3.6-0.9 1.5-2.9 2.5-2.8 1.4-5.9 0.6-3.1-0.8-5.7-4z"/>
			<path id="&lt;Path&gt;" class="s0" d="m486 199.1l0.4 1.2q0.7 1.8 1.8 1.8 1.1 0 9.2-3.1l7.1-2.8q8.4-3.3 9.2-3.9 0.7-0.7 0.1-2.2l-0.6-1.6 1.3-0.5q1.1 3.3 2.3 6.4 1 2.6 1.9 4.7l-1.3 0.5-0.5-1.5q-0.6-1.4-1.1-1.6-0.4-0.2-1.9 0.3-2.3 0.8-8 3l-7.3 2.9q-8.2 3.2-8.9 3.8-0.7 0.7 0 2.4l0.5 1.3-1.3 0.5q-0.8-2.4-1.9-5.2-1.2-3.3-2.3-5.9z"/>
			<path id="&lt;Path&gt;" class="s0" d="m486 199.1l0.4 1.2q0.7 1.8 1.8 1.8 1.1 0 9.2-3.1l7.1-2.8q8.4-3.3 9.2-3.9 0.7-0.7 0.1-2.2l-0.6-1.6 1.3-0.5q1.1 3.3 2.3 6.4 1 2.6 1.9 4.7l-1.3 0.5-0.5-1.5q-0.6-1.4-1.1-1.6-0.4-0.2-1.9 0.3-2.3 0.8-8 3l-7.3 2.9q-8.2 3.2-8.9 3.8-0.7 0.7 0 2.4l0.5 1.3-1.3 0.5q-0.8-2.4-1.9-5.2-1.2-3.3-2.3-5.9z"/>
			<path id="&lt;Path&gt;" class="s0" d="m507.9 218.1l4.6-4.5q4.4-4.2 5.8-6.5 0.8-1.3 0.5-2.4-0.1-0.3-0.5-1.2l1.4-0.4 2.6 5.7q-0.6 1.2-1.4 2.1-0.8 1-3.5 3.6l-5.4 5.1 13.9 4.3 1.1 4.2-1.3 0.3-0.2-0.8q-0.2-0.8-0.7-1.2-0.4-0.3-4.1-1.7-7.1-2.7-10.2-3.7l-9.7 9.7q-3 3-3.3 3.6-0.3 0.6-0.1 1.5l0.2 0.8-1.3 0.4q-0.5-2.4-0.8-3.6-0.3-1.2-0.8-2.5l11.7-11.2q-2.7-1.1-8.2-2.6-5.5-1.5-7.7-2-0.1-1-0.3-1.9-0.3-1.1-0.8-2.3l1.4-0.4 0.2 0.9q0.2 0.8 0.9 1.2 0.6 0.4 7.5 2.6z"/>
			<path id="&lt;Path&gt;" class="s0" d="m507.9 218.1l4.6-4.5q4.4-4.2 5.8-6.5 0.8-1.3 0.5-2.4-0.1-0.3-0.5-1.2l1.4-0.4 2.6 5.7q-0.6 1.2-1.4 2.1-0.8 1-3.5 3.6l-5.4 5.1 13.9 4.3 1.1 4.2-1.3 0.3-0.2-0.8q-0.2-0.8-0.7-1.2-0.4-0.3-4.1-1.7-7.1-2.7-10.2-3.7l-9.7 9.7q-3 3-3.3 3.6-0.3 0.6-0.1 1.5l0.2 0.8-1.3 0.4q-0.5-2.4-0.8-3.6-0.3-1.2-0.8-2.5l11.7-11.2q-2.7-1.1-8.2-2.6-5.5-1.5-7.7-2-0.1-1-0.3-1.9-0.3-1.1-0.8-2.3l1.4-0.4 0.2 0.9q0.2 0.8 0.9 1.2 0.6 0.4 7.5 2.6z"/>
			<path id="&lt;Path&gt;" class="s0" d="m497.6 237.1l0.2 1.3q0.3 1.9 1.4 2.2 1.1 0.2 9.6-1.2l7.6-1.2q8.8-1.4 9.7-1.9 0.9-0.5 0.6-2.1l-0.2-1.7 1.4-0.2q0.3 3.4 0.8 6.7 0.5 2.8 1 5l-1.4 0.3-0.3-1.6q-0.2-1.5-0.6-1.8-0.5-0.3-2-0.1-2.4 0.3-8.5 1.3l-7.6 1.2q-8.7 1.4-9.5 1.9-0.8 0.5-0.5 2.4l0.2 1.3-1.4 0.2q-0.3-2.5-0.7-5.5-0.6-3.5-1.2-6.2z"/>
			<path id="&lt;Path&gt;" class="s0" d="m497.6 237.1l0.2 1.3q0.3 1.9 1.4 2.2 1.1 0.2 9.6-1.2l7.6-1.2q8.8-1.4 9.7-1.9 0.9-0.5 0.6-2.1l-0.2-1.7 1.4-0.2q0.3 3.4 0.8 6.7 0.5 2.8 1 5l-1.4 0.3-0.3-1.6q-0.2-1.5-0.6-1.8-0.5-0.3-2-0.1-2.4 0.3-8.5 1.3l-7.6 1.2q-8.7 1.4-9.5 1.9-0.8 0.5-0.5 2.4l0.2 1.3-1.4 0.2q-0.3-2.5-0.7-5.5-0.6-3.5-1.2-6.2z"/>
			<path id="&lt;Compound Path&gt;" fill-rule="evenodd" class="s0" d="m515.8 271.7l-8.4 0.6q-2.5 0.2-4.7 0.4 0.1 4.7 0.2 5.9 0.2 4.1 1.3 6.2 2.2 0.4 5.1 0.6l0.1 1.5q-1.9-0.2-3.3-0.2-1.4 0-4.3 0.2-0.4-2.1-0.7-5.4l-0.5-9.1q-0.1-2.8-0.5-5.6l1.1-0.1q0.5 1 1.3 1.9 3.3 0 9.1-0.4 0-2.1-0.2-4-0.2-2.8-0.5-6.4l-2.2-0.9q-3-1.3-5.3-2-0.9-0.3-1.3-0.2-0.4 0-0.7 0.4-0.2 0.4-0.4 2v1.5l-1.5 0.1q0-2.7-0.1-4.9-0.2-2.5-0.5-4.9h1.4v0.7q0.1 0.9 0.6 1.4 0.5 0.6 2.2 1.3l24 10.2q2.3 0.9 2.7 0.9l0.5-0.3q0.1-0.3 0.1-1.6v-2.4l1.4-0.1 0.4 10.1 0.2 1.9 0.6 6.7 0.1 1.2q0.2 3 0.2 5.5-3-0.5-7.1-0.2v-1.4h1.3q1-0.1 2.9-0.5 0.7-2.9 0.4-6.7-0.1-1.5-0.6-4.8l-4.9 0.2-7.3 0.5q0 1.9 0.1 3.4 0.3 4.6 0.7 5.3 0.5 0.7 2.2 0.5l1.7-0.1 0.1 1.4q-2 0.1-4.3 0.2-2.7 0.2-6.1 0.6l-0.1-1.5h1.4q2.1-0.2 2.5-0.8 0.4-0.7 0.2-4.2-0.2-2.1-0.6-4.6zm-2.2-3.6l8.4-0.6q5-0.4 8.6-0.8v-0.5q-7.3-3.3-12.7-5.5l-5-2z"/>
			<path id="&lt;Compound Path&gt;" fill-rule="evenodd" class="s0" d="m515.8 271.7l-8.4 0.6q-2.5 0.2-4.7 0.4 0.1 4.7 0.2 5.9 0.2 4.1 1.3 6.2 2.2 0.4 5.1 0.6l0.1 1.5q-1.9-0.2-3.3-0.2-1.4 0-4.3 0.2-0.4-2.1-0.7-5.4l-0.5-9.1q-0.1-2.8-0.5-5.6l1.1-0.1q0.5 1 1.3 1.9 3.3 0 9.1-0.4 0-2.1-0.2-4-0.2-2.8-0.5-6.4l-2.2-0.9q-3-1.3-5.3-2-0.9-0.3-1.3-0.2-0.4 0-0.7 0.4-0.2 0.4-0.4 2v1.5l-1.5 0.1q0-2.7-0.1-4.9-0.2-2.5-0.5-4.9h1.4v0.7q0.1 0.9 0.6 1.4 0.5 0.6 2.2 1.3l24 10.2q2.3 0.9 2.7 0.9l0.5-0.3q0.1-0.3 0.1-1.6v-2.4l1.4-0.1 0.4 10.1 0.2 1.9 0.6 6.7 0.1 1.2q0.2 3 0.2 5.5-3-0.5-7.1-0.2v-1.4h1.3q1-0.1 2.9-0.5 0.7-2.9 0.4-6.7-0.1-1.5-0.6-4.8l-4.9 0.2-7.3 0.5q0 1.9 0.1 3.4 0.3 4.6 0.7 5.3 0.5 0.7 2.2 0.5l1.7-0.1 0.1 1.4q-2 0.1-4.3 0.2-2.7 0.2-6.1 0.6l-0.1-1.5h1.4q2.1-0.2 2.5-0.8 0.4-0.7 0.2-4.2-0.2-2.1-0.6-4.6zm-2.2-3.6l8.4-0.6q5-0.4 8.6-0.8v-0.5q-7.3-3.3-12.7-5.5l-5-2z"/>
			<path id="&lt;Path&gt;" class="s0" d="m272.6 131.9l0.2 2.5-3.1 0.8v-2.3z"/>
			<path id="&lt;Path&gt;" class="s0" d="m279 130.5l0.1 2.3-3 0.5-0.1-2z"/>
			<path id="&lt;Path&gt;" class="s0" d="m286.5 129.8l-0.2 2.2-3.3 0.3v-2.1z"/>
			<path id="&lt;Path&gt;" class="s0" d="m290.5 129.9l3.9 0.3-0.1 2.5-3.7-0.5z"/>
			<path id="&lt;Path&gt;" class="s0" d="m298.4 130.6l3.7 0.6v3l-3.8-0.9z"/>
			<path id="&lt;Path&gt;" class="s0" d="m305.4 132.1l2.3 0.8-0.2 3.1-2.2-1z"/>
			<path id="&lt;Path&gt;" class="s0" d="m646.2 120.3v46.6q0 3.5 1 7.3 0.9 3.9 3.2 7.1 2.2 3.2 5.9 5.2 3.6 2.1 9 2.1 5.4 0 9-2.1 3.7-2 5.9-5.2 2.3-3.2 3.3-7.1 0.9-3.8 0.9-7.3v-46.6h10.3v48.2q0 6.7-2.2 12.1-2.3 5.4-6.3 9.4-3.9 4-9.3 6.1-5.4 2.1-11.6 2.1-6.2 0-11.6-2.1-5.4-2.1-9.3-6.1-4-4-6.3-9.4-2.2-5.4-2.2-12.1v-48.2z"/>
			<path id="&lt;Path&gt;" class="s0" d="m714.5 120.3h13.5l41.9 62.5h0.2v-62.5h10.3v76h-13.1l-42.3-62.5h-0.2v62.5h-10.3z"/>
			<path id="&lt;Path&gt;" class="s0" d="m801.6 120.3h10.3v76h-10.3z"/>
			<path id="&lt;Path&gt;" class="s0" d="m822.6 120.3h12l22.3 61.8h0.2l23.2-61.8h11.3l-30 76h-9.6z"/>
			<path id="&lt;Path&gt;" class="s0" d="m902.3 120.3h49.1v9.6h-38.7v22.7h36v9.7h-36v24.3h40.7v9.7h-51.1z"/>
			<path id="&lt;Compound Path&gt;" fill-rule="evenodd" class="s0" d="m969.6 120.3h26.7q7.3 0 12 2 4.8 1.9 7.5 5 2.7 3.1 3.8 6.9 1.1 3.8 1.1 7.3 0 3.7-1.3 7.1-1.3 3.4-3.7 6.1-2.4 2.7-5.9 4.6-3.5 1.9-7.8 2.3l21.6 34.7h-12.9l-19.3-33.5h-11.5v33.5h-10.3zm10.3 33.5h13.5q3 0 6-0.5 2.9-0.4 5.2-1.7 2.4-1.3 3.7-3.7 1.4-2.5 1.4-6.3 0-3.9-1.4-6.3-1.3-2.4-3.7-3.7-2.3-1.3-5.2-1.8-3-0.5-6-0.5h-13.5z"/>
			<path id="&lt;Path&gt;" class="s0" d="m1039.1 180.4q2.8 4.2 7.1 6.2 4.4 2 9 2 2.5 0 5.2-0.8 2.7-0.8 4.9-2.4 2.2-1.7 3.6-4 1.4-2.4 1.4-5.5 0-4.4-2.8-6.7-2.8-2.3-6.9-3.9-4.1-1.5-9-3-4.9-1.4-9-4-4.2-2.6-7-6.9-2.8-4.4-2.8-11.8 0-3.3 1.5-7.1 1.4-3.7 4.5-6.9 3.2-3.1 8-5.2 4.9-2.1 11.8-2.1 6.2 0 11.9 1.8 5.7 1.7 10 6.9l-8.4 7.7q-1.9-3-5.4-4.9-3.6-1.8-8.1-1.8-4.3 0-7.1 1.1-2.9 1.2-4.6 2.9-1.7 1.8-2.4 3.8-0.7 2.1-0.7 3.8 0 4.8 2.8 7.4 2.8 2.6 6.9 4.2 4.1 1.6 9 2.9 4.9 1.3 9.1 3.6 4.1 2.3 6.9 6.2 2.8 4 2.8 10.8 0 5.5-2.1 9.9-2.1 4.4-5.7 7.4-3.5 3-8.3 4.6-4.9 1.6-10.3 1.6-7.4 0-13.9-2.5-6.6-2.6-10.4-8z"/>
			<path id="&lt;Path&gt;" class="s0" d="m1098.1 120.3h10.3v76h-10.3z"/>
			<path id="&lt;Path&gt;" class="s0" d="m1145.5 129.9h-24.5v-9.6h59.3v9.6h-24.5v66.4h-10.3z"/>
			<path id="&lt;Compound Path&gt;" fill-rule="evenodd" class="s0" d="m1206.8 120.3h9.4l32.5 76h-12l-7.6-18.8h-36.2l-7.6 18.8h-12zm11.3-4.3h-8.9l-16-15.4h13.7zm7.2 52.5l-14.2-34.9h-0.2l-14.4 34.9z"/>
			<path id="&lt;Compound Path&gt;" fill-rule="evenodd" class="s0" d="m636.7 241.1h25.3q7.1 0 14.2 2.4 7.1 2.3 12.9 7.1 5.7 4.8 9.3 11.9 3.5 7.2 3.5 16.6 0 9.6-3.5 16.7-3.6 7.1-9.3 11.8-5.8 4.8-12.9 7.2-7.1 2.3-14.2 2.3h-25.3zm7.8 69h15q8.7 0 15.1-2.6 6.4-2.7 10.6-7 4.3-4.4 6.3-9.9 2.1-5.5 2.1-11.4 0-5.9-2.1-11.5-2-5.5-6.3-9.9-4.2-4.3-10.6-6.9-6.4-2.7-15.1-2.7h-15z"/>
			<path id="&lt;Path&gt;" class="s0" d="m724.1 310.1h40.7v7h-48.5v-76h47.2v7.1h-39.4v25.9h36.8v7.1h-36.8z"/>
			<path id="&lt;Path&gt;" class="s0" d="m835.1 255.1q-3.9-4.1-9.2-6.5-5.4-2.3-12.5-2.3-7.3 0-13.1 2.6-5.8 2.7-9.8 7.2-4 4.5-6.2 10.5-2.1 6-2.1 12.5 0 6.6 2.1 12.5 2.2 6 6.2 10.5 4 4.5 9.8 7.2 5.8 2.7 13.1 2.7 5.9 0 11.3-1.5 5.5-1.4 9.8-3.9v-25.4h-18.2v-7.1h25.9v37.2q-6.5 3.8-14.1 5.8-7.7 2-14.7 2-8.5 0-15.7-3-7.3-3-12.6-8.4-5.3-5.3-8.3-12.6-3-7.3-3-16 0-8.7 3-16 3-7.3 8.3-12.6 5.3-5.3 12.6-8.3 7.2-3 15.7-3 9.1 0 15.7 2.5 6.7 2.5 11.8 7.7z"/>
			<path id="&lt;Path&gt;" class="s0" d="m869.2 310.1h35.4v7h-43.2v-76h7.8z"/>
			<path id="&lt;Path&gt;" class="s0" d="m921.8 317.1h-7.8v-76h7.8z"/>
			<path id="&lt;Path&gt;" class="s0" d="m1006.1 253.7q-5.1-7.4-14.7-7.4-3 0-5.9 0.8-2.9 0.8-5.2 2.4-2.4 1.7-3.7 4.3-1.4 2.7-1.4 6.2 0 5.2 2.9 8 2.9 2.9 7.2 4.7 4.2 1.8 9.4 3.3 5.1 1.4 9.4 3.8 4.2 2.4 7.1 6.4 2.9 4 2.9 10.9 0 5.1-2.2 9.2-2.2 4.2-5.8 7-3.6 2.8-8 4.3-4.5 1.5-9 1.5-7 0-13.2-2.7-6.3-2.6-10.7-8.6l7.1-5.1q2.4 4.2 6.8 6.8 4.4 2.5 10.4 2.5 2.9 0 5.8-0.9 2.9-0.9 5.2-2.7 2.3-1.8 3.8-4.4 1.5-2.5 1.5-5.9 0-3.9-1.7-6.6-1.7-2.6-4.4-4.4-2.7-1.8-6.2-2.9-3.5-1.2-7.2-2.4-3.7-1.2-7.2-2.7-3.5-1.5-6.3-3.8-2.7-2.3-4.4-5.8-1.6-3.5-1.6-8.7 0-5.5 2.1-9.6 2.1-4.1 5.6-6.8 3.4-2.7 7.9-3.9 4.4-1.3 9-1.3 6.4 0 11.7 2 5.2 2 9.8 7.2z"/>
			<path id="&lt;Path&gt;" class="s0" d="m1053.1 317.1h-7.7v-68.9h-25.5v-7.1h58.7v7.1h-25.5z"/>
			<path id="&lt;Path&gt;" class="s0" d="m1143.7 288.8q0 4.7-1.2 10-1.1 5.3-4.2 9.9-3.1 4.5-8.5 7.4-5.5 3-13.9 3-8.6 0-14-3-5.4-2.9-8.5-7.4-3.1-4.6-4.2-9.9-1.2-5.3-1.2-10v-47.7h7.8v46.8q0 5.5 1 9.4 1.1 3.9 2.9 6.6 1.8 2.7 4 4.3 2.2 1.5 4.4 2.4 2.2 0.8 4.2 1.1 2.1 0.3 3.6 0.3 1.4 0 3.4-0.3 2.1-0.3 4.3-1.1 2.2-0.9 4.4-2.4 2.2-1.6 4-4.3 1.8-2.7 2.9-6.6 1-3.9 1-9.4v-46.8h7.8z"/>
			<path id="&lt;Compound Path&gt;" fill-rule="evenodd" class="s0" d="m1160.9 241.1h25.2q7.1 0 14.2 2.4 7.2 2.3 12.9 7.1 5.8 4.8 9.3 11.9 3.6 7.2 3.6 16.6 0 9.6-3.6 16.7-3.5 7.1-9.3 11.8-5.7 4.8-12.9 7.2-7.1 2.3-14.2 2.3h-25.2zm7.7 69h15q8.7 0 15.1-2.6 6.4-2.7 10.7-7 4.2-4.4 6.2-9.9 2.1-5.5 2.1-11.4 0-5.9-2.1-11.5-2-5.5-6.2-9.9-4.3-4.3-10.7-6.9-6.4-2.7-15.1-2.7h-15z"/>
			<path id="&lt;Path&gt;" class="s0" d="m1248.2 317.1h-7.8v-76h7.8z"/>
			<path id="&lt;Compound Path&gt;" fill-rule="evenodd" class="s0" d="m636.7 361.9h25.3q7.1 0 14.2 2.4 7.1 2.4 12.9 7.1 5.7 4.8 9.3 12 3.5 7.1 3.5 16.5 0 9.6-3.5 16.7-3.6 7.1-9.3 11.9-5.8 4.7-12.9 7.1-7.1 2.4-14.2 2.4h-25.3zm7.8 68.9h15q8.7 0 15.1-2.6 6.4-2.6 10.6-7 4.3-4.3 6.3-9.9 2.1-5.5 2.1-11.4 0-5.9-2.1-11.5-2-5.5-6.3-9.8-4.2-4.4-10.6-7-6.4-2.6-15.1-2.6h-15z"/>
			<path id="&lt;Path&gt;" class="s0" d="m729.4 438h-7.7v-76.1h7.7z"/>
			<path id="&lt;Compound Path&gt;" fill-rule="evenodd" class="s0" d="m788 361.9h26.4q4.9 0 9.2 1.2 4.2 1.2 7.3 3.5 3 2.3 4.8 5.9 1.8 3.6 1.8 8.4 0 6.6-3.7 10.7-3.6 4.2-9.4 6.1v0.2q3.4 0.2 6.4 1.8 3 1.5 5.2 4.1 2.2 2.5 3.5 5.8 1.3 3.3 1.3 7.2 0 5.2-2.1 9.1-2.1 3.9-5.7 6.6-3.7 2.7-8.5 4.1-4.9 1.4-10.4 1.4h-26.1zm10.3 31.5h14q2.9 0 5.5-0.5 2.6-0.6 4.5-2 2-1.4 3.1-3.6 1.1-2.1 1.1-5.2 0-4.6-2.9-7.9-2.9-3.3-9.1-3.3h-16.2zm0 35.4h15.1q2.4 0 5.2-0.4 2.9-0.5 5.3-2 2.5-1.4 4.2-3.9 1.7-2.5 1.7-6.6 0-6.7-4.4-10.1-4.4-3.4-11.9-3.4h-15.2z"/>
			<path id="&lt;Compound Path&gt;" fill-rule="evenodd" class="s0" d="m861 361.9h26.7q7.3 0 12.1 2 4.7 2 7.4 5.1 2.8 3 3.8 6.8 1.1 3.8 1.1 7.4 0 3.6-1.3 7-1.3 3.4-3.7 6.2-2.4 2.7-5.9 4.6-3.5 1.8-7.8 2.3l21.6 34.7h-12.9l-19.3-33.5h-11.5v33.5h-10.3zm10.3 33.5h13.5q3 0 6-0.5 2.9-0.5 5.3-1.8 2.3-1.3 3.7-3.7 1.4-2.4 1.4-6.3 0-3.8-1.4-6.2-1.4-2.5-3.7-3.8-2.4-1.2-5.3-1.7-3-0.5-6-0.5h-13.5z"/>
			<path id="&lt;Path&gt;" class="s0" d="m932 361.9h49.1v9.7h-38.8v22.7h36.1v9.6h-36.1v24.4h40.7v9.7h-51z"/>
			<path id="&lt;Path&gt;" class="s0" d="m1005.2 422.1q2.8 4.2 7.2 6.1 4.3 2 8.9 2 2.6 0 5.3-0.8 2.7-0.8 4.9-2.4 2.2-1.6 3.6-4 1.4-2.3 1.4-5.4 0-4.4-2.8-6.8-2.8-2.3-6.9-3.8-4.2-1.6-9.1-3-4.8-1.5-9-4.1-4.1-2.5-6.9-6.9-2.8-4.3-2.8-11.7 0-3.4 1.4-7.1 1.5-3.8 4.6-6.9 3.1-3.1 8-5.2 4.9-2.1 11.8-2.1 6.2 0 11.9 1.7 5.7 1.7 10 7l-8.4 7.6q-1.9-3-5.5-4.8-3.5-1.8-8-1.8-4.3 0-7.2 1.1-2.8 1.1-4.5 2.9-1.7 1.8-2.4 3.8-0.7 2-0.7 3.8 0 4.8 2.7 7.4 2.8 2.5 7 4.2 4.1 1.6 9 2.9 4.9 1.2 9 3.6 4.2 2.3 6.9 6.2 2.8 3.9 2.8 10.8 0 5.5-2.1 9.9-2 4.4-5.6 7.4-3.5 3-8.4 4.6-4.8 1.6-10.3 1.6-7.3 0-13.8-2.6-6.6-2.6-10.5-7.9z"/>
			<path id="&lt;Path&gt;" class="s0" d="m1121 378.4q-3.2-4.2-8.2-6.5-4.9-2.2-10.2-2.2-6.4 0-11.6 2.4-5.2 2.4-8.9 6.6-3.7 4.2-5.8 9.8-2 5.6-2 12.1 0 6 1.9 11.4 2 5.3 5.6 9.4 3.7 4.1 8.9 6.5 5.3 2.3 11.9 2.3 6.6 0 11.5-2.7 5-2.6 8.4-7.5l8.7 6.6q-0.8 1.2-3 3.4-2.1 2.2-5.7 4.4-3.5 2.2-8.5 3.8-5 1.7-11.6 1.7-9 0-16.2-3.4-7.3-3.5-12.4-9.1-5.1-5.5-7.8-12.6-2.7-7-2.7-14.2 0-8.8 2.9-16.3 2.9-7.4 8.1-12.9 5.3-5.4 12.6-8.4 7.3-3 16.1-3 7.5 0 14.7 2.9 7.3 2.9 11.9 8.9z"/>
			<path id="&lt;Path&gt;" class="s0" d="m1149 361.9h10.4v76.1h-10.4z"/>
			<path id="&lt;Compound Path&gt;" fill-rule="evenodd" class="s0" d="m1208.1 361.9h9.4l32.5 76.1h-12l-7.7-18.8h-36.1l-7.6 18.8h-12zm18.5 48.2l-14.2-34.9h-0.2l-14.4 34.9z"/>
			<path id="&lt;Path&gt;" class="s0" d="m592 119.8v318h-5.1v-318"/>
		</g>
	</g>
</svg>